<svg width="40" height="40" viewBox="0 0 40 40" fill="none" xmlns="http://www.w3.org/2000/svg">
<g clip-path="url(#clip0_234_1772)">
<path d="M7.55981 13.704C8.03075 13.1149 8.35028 12.3241 8.26606 11.5159C7.57669 11.5502 6.73544 11.9707 6.24841 12.5602C5.81106 13.065 5.42403 13.889 5.52497 14.6633C6.29872 14.7304 7.07192 14.2765 7.55981 13.704Z" fill="#B0B0B0"/>
<path d="M8.2573 14.8145C7.13347 14.7476 6.17792 15.4524 5.6412 15.4524C5.10425 15.4524 4.28237 14.8483 3.39347 14.8645C2.23652 14.8816 1.163 15.5357 0.57589 16.5761C-0.631688 18.6574 0.257218 21.7448 1.43152 23.4399C2.00175 24.2784 2.68909 25.2019 3.59464 25.1687C4.45026 25.1351 4.78566 24.6146 5.82566 24.6146C6.86495 24.6146 7.16706 25.1687 8.07277 25.1519C9.01206 25.1351 9.59925 24.3128 10.1695 23.4734C10.8237 22.5174 11.0915 21.5943 11.1083 21.5436C11.0914 21.5268 9.29714 20.8384 9.2805 18.7745C9.26355 17.0463 10.6892 16.2242 10.7564 16.1732C9.95136 14.9826 8.69339 14.8483 8.2573 14.8145Z" fill="#B0B0B0"/>
<path d="M18.0429 12.4756C20.4856 12.4756 22.1864 14.1593 22.1864 16.6107C22.1864 19.0709 20.4505 20.7634 17.9817 20.7634H15.2772V25.0643H13.3232V12.4756H18.0429ZM15.2771 19.1232H17.5192C19.2204 19.1232 20.1886 18.2073 20.1886 16.6195C20.1886 15.0318 19.2204 14.1245 17.5279 14.1245H15.2771V19.1232Z" fill="#B0B0B0"/>
<path d="M22.6973 22.4559C22.6973 20.8506 23.9273 19.8648 26.1085 19.7427L28.6209 19.5944V18.8878C28.6209 17.8671 27.9316 17.2564 26.7803 17.2564C25.6895 17.2564 25.0091 17.7798 24.8435 18.5999H23.0638C23.1685 16.9423 24.5816 15.7209 26.85 15.7209C29.0745 15.7209 30.4965 16.8987 30.4965 18.7394V25.0642H28.6905V23.555H28.6471C28.115 24.5758 26.9546 25.2213 25.7508 25.2213C23.9536 25.2213 22.6973 24.1045 22.6973 22.4559ZM28.6208 21.6271V20.9031L26.3613 21.0426C25.2359 21.1212 24.5991 21.6184 24.5991 22.4036C24.5991 23.2061 25.262 23.7296 26.2741 23.7296C27.5913 23.7295 28.6208 22.8222 28.6208 21.6271Z" fill="#B0B0B0"/>
<path d="M32.2013 28.4405V26.9138C32.3407 26.9487 32.6546 26.9487 32.8118 26.9487C33.6841 26.9487 34.1553 26.5823 34.443 25.6402C34.443 25.6227 34.6089 25.0818 34.6089 25.073L31.2939 15.8867H33.3351L35.656 23.3545H35.6907L38.0115 15.8867H40.0004L36.5629 25.5441C35.778 27.7688 34.8707 28.4841 32.9689 28.4841C32.8118 28.4841 32.3406 28.4666 32.2013 28.4405Z" fill="#B0B0B0"/>
</g>
<defs>
<clipPath id="clip0_234_1772">
<rect width="40" height="40" fill="white"/>
</clipPath>
</defs>
</svg>
