<svg width="41" height="40" viewBox="0 0 41 40" fill="none" xmlns="http://www.w3.org/2000/svg">
<path d="M1 13.2059V15.9645C1 16.1363 1.14711 16.2767 1.3265 16.2767H5.07533C4.94255 16.4722 4.86451 16.7043 4.86451 16.9533V17.3958H4.68768C3.96926 17.3958 3.38127 17.9578 3.38127 18.645V26.4998H15.0004V20.0304H16.0135V26.5H17.497V20.0304H18.51V26.5H19.9935V20.0304H21.0065V26.5H22.49V20.0304H23.503V26.5H24.9865V20.0304H25.9996V26.5H37.6187V18.645C37.6187 17.958 37.0307 17.3958 36.3123 17.3958H36.1355V16.9533C36.1355 16.7043 36.0574 16.472 35.9247 16.2767H39.6735C39.8531 16.2767 40 16.1363 40 15.9645V13.2059C40 13.0342 39.8531 12.8937 39.6735 12.8937H36.4077C36.2281 12.8937 36.0812 13.0342 36.0812 13.2059V14.5593H35.3951C34.9715 12.4102 33.8404 7.45363 32.312 6.80385C32.0877 6.70857 31.7589 6.62065 31.3544 6.53989V5.70753C31.3544 5.59344 31.2566 5.5 31.1373 5.5H29.8348C29.7155 5.5 29.6177 5.59344 29.6177 5.70753V6.2792C29.1035 6.21889 28.5493 6.16429 27.978 6.11481L27.9532 6.10439L27.9496 6.11236C24.5324 5.81773 20.5028 5.711 20.5006 5.7108C20.4981 5.7108 14.9806 5.85678 11.3833 6.2792V5.70753C11.3827 5.59344 11.285 5.5 11.1654 5.5H9.86309C9.74357 5.5 9.64586 5.59344 9.64586 5.70753V6.53989C9.2411 6.62065 8.91247 6.70837 8.68817 6.80385C7.15961 7.45342 6.02873 12.4102 5.60495 14.5593H4.91882V13.2059C4.91882 13.0342 4.77171 12.8937 4.59211 12.8937H1.3265C1.14711 12.8935 1 13.0342 1 13.2059ZM20.4996 7.77483C22.3422 7.8237 24.8272 7.93636 27.0291 8.10402L23.5193 15.7042H15.1005L18.735 7.83413C19.3625 7.80918 19.9593 7.78915 20.4996 7.77483ZM5.98276 25.5484C5.30839 25.5484 4.76166 25.0256 4.76166 24.3808C4.76166 23.7359 5.30839 23.2131 5.98276 23.2131C6.65714 23.2131 7.20387 23.7359 7.20387 24.3808C7.20387 25.0258 6.65714 25.5484 5.98276 25.5484ZM9.56461 25.5484C8.89023 25.5484 8.3435 25.0256 8.3435 24.3808C8.3435 23.7359 8.89023 23.2131 9.56461 23.2131C10.239 23.2131 10.7857 23.7359 10.7857 24.3808C10.7857 25.0258 10.239 25.5484 9.56461 25.5484ZM11.4507 21.6584C11.4507 21.8833 11.2582 22.0673 11.023 22.0673H4.91112C4.67592 22.0673 4.48349 21.8833 4.48349 21.6584V18.9368C4.48349 18.7119 4.67592 18.5279 4.91112 18.5279H11.023C11.2582 18.5279 11.4507 18.7119 11.4507 18.9368V21.6584ZM31.435 25.5484C30.7606 25.5484 30.2139 25.0256 30.2139 24.3808C30.2139 23.7359 30.7606 23.2131 31.435 23.2131C32.1093 23.2131 32.6561 23.7359 32.6561 24.3808C32.6559 25.0258 32.1093 25.5484 31.435 25.5484ZM35.0166 25.5484C34.3422 25.5484 33.7955 25.0256 33.7955 24.3808C33.7955 23.7359 34.3422 23.2131 35.0166 23.2131C35.691 23.2131 36.2377 23.7359 36.2377 24.3808C36.2377 25.0258 35.691 25.5484 35.0166 25.5484ZM36.5159 18.9368V21.6584C36.5159 21.8833 36.3234 22.0673 36.0882 22.0673H29.9763C29.7411 22.0673 29.5487 21.8833 29.5487 21.6584V18.9368C29.5487 18.7119 29.7411 18.5279 29.9763 18.5279H36.0882C36.3234 18.5279 36.5159 18.7119 36.5159 18.9368ZM34.4314 15.2532L34.5203 15.7042H23.8289L27.328 8.12733C29.4627 8.29703 31.2842 8.51928 31.9131 8.78671C32.3873 8.98831 33.4906 10.4805 34.4314 15.2532ZM6.56819 15.2532C7.50855 10.4807 8.61184 8.98831 9.08609 8.78671C10.1648 8.32831 14.7543 8.00138 18.4191 7.84721L14.7907 15.7045H6.47903L6.56819 15.2532Z" fill="#D9D9D9"/>
<path d="M3 26.5V29.9094H3.77903V33.6709C3.77903 34.1269 4.17248 34.5 4.65336 34.5H8.74721C9.22809 34.5 9.62154 34.1269 9.62154 33.6709V30.9909H31.3785V33.6709C31.3785 34.1269 31.7719 34.5 32.2528 34.5H36.3466C36.8275 34.5 37.221 34.1269 37.221 33.6709V29.9094H38V26.5H3Z" fill="#D9D9D9"/>
<path d="M14.3662 12.6962L16.9539 5.23795L17.2198 5.38734L14.6321 12.8456L14.3662 12.6962Z" fill="#D9D9D9"/>
<path d="M15.5488 13.3604L18.1366 5.90214L18.4024 6.05152L15.8147 13.5097L15.5488 13.3604Z" fill="#D9D9D9"/>
<path d="M23.5762 11.9496L26.1639 4.49137L26.4298 4.64075L23.842 12.099L23.5762 11.9496Z" fill="#D9D9D9"/>
<path d="M24.7607 12.614L27.3485 5.1558L27.6143 5.30518L25.0266 12.7634L24.7607 12.614Z" fill="#D9D9D9"/>
</svg>
