<svg width="30" height="29" viewBox="0 0 30 29" fill="none" xmlns="http://www.w3.org/2000/svg">
<path d="M13.8524 18.0645L11.617 20.3C11.1457 20.7712 10.3966 20.7712 9.91324 20.312C9.78033 20.1791 9.64741 20.0583 9.51449 19.9254C8.26991 18.6687 7.14616 17.3516 6.14324 15.9741C5.15241 14.5966 4.35491 13.2191 3.77491 11.8537C3.20699 10.4762 2.91699 9.15913 2.91699 7.90246C2.91699 7.08079 3.06199 6.29538 3.35199 5.57038C3.64199 4.83329 4.10116 4.15663 4.74158 3.55246C5.51491 2.79121 6.36074 2.41663 7.25491 2.41663C7.59324 2.41663 7.93158 2.48913 8.23366 2.63413C8.54783 2.77913 8.82574 2.99663 9.04324 3.31079L11.8466 7.26204C12.0641 7.56413 12.2212 7.84204 12.3299 8.10788C12.4387 8.36163 12.4991 8.61538 12.4991 8.84496C12.4991 9.13496 12.4145 9.42496 12.2453 9.70288C12.0882 9.98079 11.8587 10.2708 11.5687 10.5608L10.6503 11.5154C10.5174 11.6483 10.457 11.8054 10.457 11.9987C10.457 12.0954 10.4691 12.18 10.4932 12.2766C10.5295 12.3733 10.5657 12.4458 10.5899 12.5183C10.8074 12.917 11.182 13.4366 11.7137 14.065C12.2574 14.6933 12.8374 15.3337 13.4657 15.9741C13.5866 16.095 13.7195 16.2158 13.8403 16.3366C14.3237 16.8079 14.3357 17.5812 13.8524 18.0645Z" fill="#143850"/>
<path d="M27.0467 22.1487C27.0467 22.487 26.9863 22.8375 26.8654 23.1758C26.8292 23.2725 26.7929 23.3691 26.7446 23.4658C26.5392 23.9008 26.2734 24.3116 25.9229 24.6983C25.3309 25.3508 24.6784 25.8221 23.9413 26.1241C23.9292 26.1241 23.9171 26.1362 23.905 26.1362C23.1921 26.4262 22.4188 26.5833 21.585 26.5833C20.3525 26.5833 19.0354 26.2933 17.6459 25.7012C16.2563 25.1091 14.8667 24.3116 13.4892 23.3087C13.0179 22.9583 12.5467 22.6079 12.0996 22.2333L16.0509 18.282C16.3892 18.5358 16.6913 18.7291 16.945 18.862C17.0054 18.8862 17.0779 18.9225 17.1625 18.9587C17.2592 18.995 17.3559 19.007 17.4646 19.007C17.67 19.007 17.8271 18.9345 17.96 18.8016L18.8784 17.8954C19.1804 17.5933 19.4704 17.3637 19.7484 17.2187C20.0263 17.0495 20.3042 16.965 20.6063 16.965C20.8359 16.965 21.0775 17.0133 21.3434 17.122C21.6092 17.2308 21.8871 17.3879 22.1892 17.5933L26.1888 20.4329C26.5029 20.6504 26.7204 20.9041 26.8534 21.2062C26.9742 21.5083 27.0467 21.8104 27.0467 22.1487Z" fill="#143850"/>
</svg>
