<svg width="29" height="29" viewBox="0 0 29 29" fill="none" xmlns="http://www.w3.org/2000/svg">
<path d="M23.0527 17.0488C22.584 17.0488 22.2031 17.4297 22.2031 17.8984C22.2031 18.3672 22.584 18.748 23.0527 18.748C23.5215 18.748 23.9023 18.3672 23.9023 17.8984C23.9023 17.4297 23.5215 17.0488 23.0527 17.0488Z" fill="#B0B0B0"/>
<path d="M28.1504 5.1543H8.56661V7.70312C8.56661 8.17273 8.18661 8.55273 7.717 8.55273C7.24739 8.55273 6.86739 8.17273 6.86739 7.70312V5.1543H0.849609C0.380002 5.1543 0 5.5343 0 6.00391V11.1016C0 11.5712 0.380002 11.9512 0.849609 11.9512C2.25509 11.9512 3.39844 13.0945 3.39844 14.5C3.39844 15.9055 2.25509 17.0488 0.849609 17.0488C0.380002 17.0488 0 17.4288 0 17.8984V22.9961C0 23.4657 0.380002 23.8457 0.849609 23.8457H6.79688V21.2969C6.79688 20.8273 7.17688 20.4473 7.64648 20.4473C8.11609 20.4473 8.49609 20.8273 8.49609 21.2969V23.8457H28.1504C28.62 23.8457 29 23.4657 29 22.9961V6.00391C29 5.5343 28.62 5.1543 28.1504 5.1543ZM8.49609 17.8984C8.49609 18.368 8.11609 18.748 7.64648 18.748C7.17688 18.748 6.79688 18.368 6.79688 17.8984V16.1992C6.79688 15.7296 7.17688 15.3496 7.64648 15.3496C8.11609 15.3496 8.49609 15.7296 8.49609 16.1992V17.8984ZM8.49609 12.8008C8.49609 13.2704 8.11609 13.6504 7.64648 13.6504C7.17688 13.6504 6.79688 13.2704 6.79688 12.8008V11.1016C6.79688 10.632 7.17688 10.252 7.64648 10.252C8.11609 10.252 8.49609 10.632 8.49609 11.1016V12.8008ZM13.707 11.1016C13.707 9.69608 14.8504 8.55273 16.2559 8.55273C17.6613 8.55273 18.8047 9.69608 18.8047 11.1016C18.8047 12.507 17.6613 13.6504 16.2559 13.6504C14.8504 13.6504 13.707 12.507 13.707 11.1016ZM15.7846 20.3045C15.3938 20.044 15.2884 19.5172 15.549 19.1263L22.3459 8.93104C22.6056 8.54027 23.1324 8.43571 23.524 8.69541C23.9148 8.95596 24.0202 9.48277 23.7597 9.87359L16.9628 20.0689C16.7065 20.4539 16.1816 20.5677 15.7846 20.3045ZM23.0527 20.4473C21.6473 20.4473 20.5039 19.3039 20.5039 17.8984C20.5039 16.493 21.6473 15.3496 23.0527 15.3496C24.4582 15.3496 25.6016 16.493 25.6016 17.8984C25.6016 19.3039 24.4582 20.4473 23.0527 20.4473Z" fill="#B0B0B0"/>
<path d="M16.2559 10.252C15.7871 10.252 15.4062 10.6328 15.4062 11.1016C15.4062 11.5703 15.7871 11.9512 16.2559 11.9512C16.7246 11.9512 17.1055 11.5703 17.1055 11.1016C17.1055 10.6328 16.7246 10.252 16.2559 10.252Z" fill="#B0B0B0"/>
</svg>
