<svg width="40" height="40" viewBox="0 0 40 40" fill="none" xmlns="http://www.w3.org/2000/svg">
<path d="M34.5 14.7159V13.1818C34.5 11.4245 33.0799 10 31.3281 10H8.67188C6.92009 10 5.5 11.4245 5.5 13.1818V14.7159C5.5 14.8728 5.62682 15 5.7832 15H34.2168C34.3732 15 34.5 14.8728 34.5 14.7159Z" fill="#143850"/>
<path d="M5.5 17.1022V26.8181C5.5 28.5754 6.92009 29.9999 8.67188 29.9999H31.3281C33.0799 29.9999 34.5 28.5754 34.5 26.8181V17.1022C34.5 16.9453 34.3732 16.8181 34.2168 16.8181H5.7832C5.62682 16.8181 5.5 16.9453 5.5 17.1022ZM12.75 24.5454C12.75 25.0474 12.3442 25.4545 11.8438 25.4545H10.9375C10.437 25.4545 10.0312 25.0474 10.0312 24.5454V23.6363C10.0312 23.1343 10.437 22.7272 10.9375 22.7272H11.8438C12.3442 22.7272 12.75 23.1343 12.75 23.6363V24.5454Z" fill="#143850"/>
</svg>
