<svg width="36" height="37" viewBox="0 0 36 37" fill="none" xmlns="http://www.w3.org/2000/svg">
<path fill-rule="evenodd" clip-rule="evenodd" d="M0.5 36.2567C0.873665 34.6375 2.24377 28.9079 3.73843 27.7869C11.2117 22.8047 24.7883 22.8047 32.137 27.7869C33.7562 28.9079 35.1263 34.6375 35.5 36.2567H0.5Z" fill="#143850"/>
<path fill-rule="evenodd" clip-rule="evenodd" d="M9.59277 12.5913C9.59277 13.9614 9.96644 15.3315 10.7138 15.5806C13.454 25.4205 22.5465 25.4205 25.2867 15.5806C26.0341 15.3315 26.4077 13.9614 26.4077 12.5913H9.59277Z" fill="#143850"/>
<path fill-rule="evenodd" clip-rule="evenodd" d="M9.9663 9.22829C10.0909 5.61619 11.9592 3.24965 14.3257 2.00409L15.0731 6.61263C15.1976 7.35997 16.3186 7.23541 16.1941 6.48808L15.4467 1.63043C15.4467 0.0112114 20.5535 0.0112114 20.5535 1.63043L19.6816 6.48808C19.557 7.23541 20.678 7.35997 20.8026 6.61263L21.6745 2.12865C24.041 3.24965 25.7848 5.61619 25.9094 9.22829C27.404 9.4774 27.404 11.844 25.6602 11.844H10.2154C8.59619 11.844 8.47163 9.4774 9.9663 9.22829Z" fill="#143850"/>
</svg>
