<svg width="10" height="10" viewBox="0 0 10 10" fill="none" xmlns="http://www.w3.org/2000/svg">
<path d="M8.75 9.16675H1.25C1.07917 9.16675 0.9375 9.02508 0.9375 8.85425C0.9375 8.68341 1.07917 8.54175 1.25 8.54175H8.75C8.92083 8.54175 9.0625 8.68341 9.0625 8.85425C9.0625 9.02508 8.92083 9.16675 8.75 9.16675Z" fill="#292D32"/>
<path d="M7.92475 1.45002C7.11641 0.641691 6.32475 0.620858 5.49558 1.45002L4.99141 1.95419C4.94975 1.99586 4.93308 2.06253 4.94975 2.12086C5.26641 3.22503 6.14975 4.10836 7.25391 4.42502C7.27058 4.42919 7.28725 4.43336 7.30391 4.43336C7.34975 4.43336 7.39141 4.41669 7.42475 4.38336L7.92475 3.87919C8.33725 3.47086 8.53725 3.07503 8.53725 2.67502C8.54141 2.26252 8.34141 1.86252 7.92475 1.45002Z" fill="#292D32"/>
<path d="M6.50446 4.80409C6.38363 4.74575 6.26696 4.68742 6.15446 4.62075C6.0628 4.56659 5.9753 4.50825 5.8878 4.44575C5.81696 4.39992 5.73363 4.33325 5.65446 4.26659C5.64613 4.26242 5.61696 4.23742 5.58363 4.20409C5.44613 4.08742 5.29196 3.93742 5.15446 3.77075C5.14196 3.76242 5.12113 3.73325 5.09196 3.69575C5.0503 3.64575 4.97946 3.56242 4.91696 3.46659C4.86696 3.40409 4.80863 3.31242 4.75446 3.22075C4.6878 3.10825 4.62946 2.99575 4.57113 2.87909C4.49465 2.71519 4.27954 2.66651 4.15165 2.79439L1.80863 5.13742C1.75446 5.19159 1.70446 5.29575 1.69196 5.36659L1.46696 6.96242C1.4253 7.24575 1.50446 7.51242 1.67946 7.69158C1.82946 7.83742 2.0378 7.91658 2.2628 7.91658C2.3128 7.91658 2.3628 7.91242 2.4128 7.90408L4.0128 7.67909C4.0878 7.66659 4.19196 7.61658 4.24196 7.56242L6.58885 5.21553C6.71418 5.0902 6.66709 4.87456 6.50446 4.80409Z" fill="#292D32"/>
</svg>
