<svg width="26" height="27" viewBox="0 0 26 27" fill="none" xmlns="http://www.w3.org/2000/svg">
<path d="M22.5656 9.38024L15.4698 3.70357C14.0831 2.59857 11.9165 2.58774 10.5406 3.69274L3.4448 9.38024C2.42646 10.1927 1.80896 11.8177 2.02563 13.0961L3.39063 21.2644C3.7048 23.0952 5.40563 24.5361 7.25813 24.5361H18.7415C20.5723 24.5361 22.3056 23.0627 22.6198 21.2536L23.9848 13.0852C24.1798 11.8177 23.5623 10.1927 22.5656 9.38024ZM13.8123 20.2027C13.8123 20.6469 13.444 21.0152 12.9998 21.0152C12.5556 21.0152 12.1873 20.6469 12.1873 20.2027V16.9527C12.1873 16.5086 12.5556 16.1402 12.9998 16.1402C13.444 16.1402 13.8123 16.5086 13.8123 16.9527V20.2027Z" fill="#143850"/>
</svg>
