<svg width="40" height="41" viewBox="0 0 40 41" fill="none" xmlns="http://www.w3.org/2000/svg">
<path d="M11.3906 27.4834H22.1558V29.7044H11.3906V27.4834Z" fill="#143850"/>
<path d="M26.3364 26.0869H23.2338C22.9769 26.0869 22.7686 26.2953 22.7686 26.5522V29.7587C22.7686 30.0682 22.5179 30.3188 22.2085 30.3188H11.3363C11.0269 30.3188 10.7762 30.0682 10.7762 29.7587V26.5522C10.7762 26.2953 10.5679 26.0869 10.311 26.0869H7.20841C6.95155 26.0869 6.74316 26.2953 6.74316 26.5522V32.0269C6.74316 32.8323 7.39608 33.4856 8.20186 33.4856H25.3429C26.1483 33.4856 26.8016 32.8327 26.8016 32.0269V26.5522C26.8016 26.2953 26.5933 26.0869 26.3364 26.0869Z" fill="#143850"/>
<path d="M11.3902 26.5533V26.869H22.1554V26.5533C22.1554 25.9551 22.6389 25.4716 23.2334 25.4716H25.0529C25.0529 24.8365 25.0488 23.599 25.0405 21.267L21.9835 19.6198C21.7046 19.4682 21.5451 19.1649 21.5779 18.8493C21.6147 18.5294 21.8318 18.2713 22.1392 18.1814L23.2458 17.8537C23.7251 17.7145 24.139 17.3823 24.3726 16.944L25.0036 15.7761C24.9299 15.3581 24.7699 14.9728 24.5487 14.6327C23.9915 13.8008 23.049 13.2556 21.9793 13.2556H19.5122V11.5835H20.8276C21.0737 11.5835 21.2949 11.436 21.3931 11.2107L22.6144 8.37488C22.7905 7.96515 22.4914 7.5144 22.0489 7.5144H11.4925C11.05 7.5144 10.7509 7.96515 10.927 8.37488L12.1483 11.2107C12.2465 11.436 12.4681 11.5835 12.7138 11.5835H14.0292V13.2556H11.5621C9.86146 13.2556 8.48438 14.6364 8.48438 16.337V25.4716H10.3122C10.9067 25.4716 11.3902 25.9551 11.3902 26.5533ZM14.644 11.5835H18.8979V13.2556H14.644V11.5835ZM12.882 16.2223H20.6598C20.8317 16.2223 20.9672 16.3573 20.9672 16.5297C20.9672 16.6979 20.8322 16.8371 20.6598 16.8371H12.882C12.7101 16.8371 12.5746 16.6979 12.5746 16.5297C12.5746 16.3577 12.7097 16.2223 12.882 16.2223ZM12.882 18.9843H20.6598C20.8317 18.9843 20.9672 19.1235 20.9672 19.2917C20.9672 19.4599 20.8322 19.5991 20.6598 19.5991H12.882C12.7101 19.5991 12.5746 19.4599 12.5746 19.2917C12.5746 19.1235 12.7097 18.9843 12.882 18.9843ZM12.882 21.7464H20.6598C20.8317 21.7464 20.9672 21.8856 20.9672 22.0538C20.9672 22.2257 20.8322 22.3612 20.6598 22.3612H12.882C12.7101 22.3612 12.5746 22.2261 12.5746 22.0538C12.5746 21.8856 12.7097 21.7464 12.882 21.7464ZM12.882 24.5125H20.6598C20.8317 24.5125 20.9672 24.6476 20.9672 24.8199C20.9672 24.9881 20.8322 25.1273 20.6598 25.1273H12.882C12.7101 25.1273 12.5746 24.9881 12.5746 24.8199C12.5746 24.6476 12.7097 24.5125 12.882 24.5125Z" fill="#143850"/>
<path d="M32.7899 16.7795L31.1672 15.9024L33.1259 12.2758C33.2651 12.0177 33.2941 11.7227 33.2121 11.4439C33.1259 11.1651 32.9416 10.9356 32.6835 10.7964C32.5235 10.7102 32.3475 10.665 32.1673 10.665C31.7658 10.665 31.3967 10.8821 31.204 11.2388L29.2453 14.8655L27.6225 13.9884C27.2128 13.7672 26.7086 13.9188 26.4874 14.3244L25.8564 15.4923L32.4991 19.0821L33.1301 17.9142C33.3471 17.509 33.1955 17.0007 32.7899 16.7795Z" fill="#143850"/>
<path d="M32.2039 19.6235L25.5608 16.0337L24.9133 17.2343C24.5976 17.8201 24.0611 18.2588 23.4215 18.4432L22.3108 18.7709C22.1674 18.8119 22.1467 19.0045 22.278 19.0783L24.84 20.4628L24.8404 20.4616L25.9606 18.3885C26.0414 18.2398 26.2278 18.1838 26.3774 18.2642C26.5265 18.345 26.5825 18.5314 26.5017 18.681L25.3815 20.7541L25.3806 20.7549L26.5986 21.4132L26.599 21.4119L27.353 20.0166C27.4338 19.8675 27.6203 19.8124 27.7698 19.8923C27.919 19.9731 27.9749 20.1596 27.8941 20.3091L27.1401 21.7044L27.1389 21.7057L28.3569 22.364L28.3573 22.3627L30.0252 19.2751C30.1056 19.1259 30.292 19.0704 30.442 19.1508C30.5911 19.2316 30.647 19.418 30.5662 19.5675L28.8987 22.654L28.8975 22.6552L31.4619 24.041C31.5933 24.1106 31.7449 23.9876 31.6997 23.8442L31.3637 22.7377C31.1711 22.0984 31.2407 21.4099 31.5564 20.8241L32.2039 19.6235Z" fill="#143850"/>
<path d="M25.8143 12.21C25.8545 12.2149 25.8968 12.2054 25.9324 12.1777C26.1429 12.0132 26.4055 11.9436 26.6702 11.9776C26.937 12.0119 27.1715 12.1453 27.3356 12.3579C27.3613 12.3914 27.4015 12.4138 27.4416 12.4188C27.4818 12.4237 27.5241 12.4121 27.5597 12.3865C27.5933 12.3587 27.6156 12.3206 27.6206 12.2804C27.626 12.2381 27.614 12.198 27.5883 12.1623C27.4263 11.9502 27.3542 11.6892 27.3886 11.4224C27.4226 11.1577 27.5585 10.9215 27.7685 10.7591C27.8041 10.7314 27.8244 10.6933 27.8294 10.6531C27.8348 10.6108 27.8253 10.5686 27.7971 10.535C27.7437 10.4638 27.6422 10.4505 27.5726 10.506C27.3604 10.668 27.0994 10.7401 26.8326 10.7057C26.5679 10.6717 26.3318 10.5358 26.1694 10.3258C26.1163 10.2545 26.0144 10.2413 25.9448 10.2968C25.9092 10.3225 25.8893 10.3606 25.8839 10.4029C25.879 10.443 25.8885 10.4853 25.9162 10.5209C26.0786 10.731 26.1503 10.994 26.1163 11.2588C26.082 11.5256 25.9465 11.7596 25.736 11.9241C25.6648 11.9771 25.6519 12.077 25.707 12.1487C25.7356 12.1847 25.7721 12.2046 25.8143 12.21Z" fill="#143850"/>
<path d="M24.128 10.0333C24.1537 10.0366 24.181 10.0304 24.2038 10.0126C24.3389 9.90692 24.5079 9.86218 24.6778 9.88414C24.8489 9.9061 24.9997 9.99185 25.1053 10.1282C25.1219 10.1497 25.1476 10.1642 25.1737 10.1671C25.1993 10.1704 25.2267 10.163 25.2495 10.1464C25.271 10.1286 25.2855 10.1041 25.2884 10.078C25.2917 10.0507 25.2843 10.025 25.2677 10.0022C25.1637 9.86591 25.1173 9.69812 25.1393 9.52702C25.1612 9.35717 25.2482 9.20512 25.3833 9.10114C25.4065 9.08332 25.4193 9.05888 25.4222 9.03278C25.4255 9.00544 25.4193 8.97851 25.4015 8.95697C25.3671 8.91098 25.3021 8.9027 25.2573 8.93832C25.121 9.04231 24.9533 9.08871 24.7822 9.06675C24.6123 9.0448 24.4603 8.9578 24.3563 8.82274C24.3219 8.77675 24.2568 8.76847 24.2121 8.8041C24.1893 8.82067 24.1765 8.84511 24.1727 8.87245C24.1694 8.89814 24.1756 8.92548 24.1935 8.94827C24.2979 9.08332 24.3438 9.25235 24.3219 9.42221C24.2999 9.59331 24.2129 9.74411 24.0779 9.84975C24.0319 9.88414 24.0236 9.94794 24.0592 9.99392C24.0775 10.0171 24.1007 10.03 24.128 10.0333Z" fill="#143850"/>
<path d="M30.9099 26.5507C30.7251 26.6916 30.4985 26.7541 30.2665 26.7243C30.0366 26.6949 29.8307 26.5768 29.6898 26.3941C29.6434 26.332 29.5552 26.3208 29.4947 26.3693C29.4636 26.3916 29.4462 26.4248 29.4417 26.4616C29.4371 26.4964 29.4454 26.5333 29.4694 26.5644C29.6107 26.7471 29.6728 26.9758 29.6434 27.2061C29.6136 27.4381 29.4959 27.6415 29.3128 27.7849C29.2507 27.8313 29.2395 27.9179 29.288 27.98C29.312 28.0111 29.3435 28.0285 29.3803 28.033C29.4151 28.0376 29.452 28.0293 29.4831 28.0053C29.6662 27.8623 29.8945 27.8019 30.1248 27.8313C30.3568 27.8611 30.5606 27.9771 30.7036 28.1619C30.7259 28.1909 30.7607 28.2103 30.796 28.2149C30.8308 28.2195 30.8676 28.2091 30.8987 28.1867C30.9281 28.1623 30.9472 28.1296 30.9517 28.0943C30.9563 28.0575 30.9459 28.0227 30.924 27.9916C30.7831 27.8068 30.7206 27.5802 30.7504 27.3482C30.7798 27.1183 30.8979 26.9124 31.0806 26.7715C31.1116 26.7475 31.129 26.7144 31.1336 26.6791C31.1382 26.6423 31.1299 26.6058 31.1054 26.5764C31.0586 26.5138 30.9704 26.5027 30.9099 26.5507Z" fill="#143850"/>
<path d="M28.7167 24.7799C28.5804 24.8839 28.4126 24.9303 28.2415 24.9083C28.0717 24.8863 27.9196 24.7993 27.8156 24.6643C27.7813 24.6183 27.7162 24.61 27.6715 24.6456C27.6487 24.6622 27.6358 24.6867 27.6325 24.714C27.6292 24.7397 27.6354 24.767 27.6532 24.7898C27.7576 24.9249 27.8036 25.0939 27.7817 25.2638C27.7597 25.4349 27.6727 25.5857 27.5377 25.6913C27.4917 25.7257 27.4838 25.7895 27.519 25.8355C27.5368 25.8583 27.56 25.8711 27.5874 25.8744C27.6131 25.8777 27.6404 25.8715 27.6632 25.8537C27.7982 25.7481 27.9673 25.7033 28.1371 25.7253C28.3082 25.7472 28.459 25.833 28.5647 25.9693C28.5812 25.9908 28.6069 26.0053 28.633 26.0082C28.6587 26.0115 28.6861 26.0041 28.7088 25.9875C28.7304 25.9697 28.7445 25.9453 28.7478 25.9192C28.7511 25.8918 28.7436 25.8661 28.7271 25.8433C28.6231 25.707 28.5767 25.5393 28.5986 25.3682C28.6206 25.1983 28.7076 25.0463 28.8427 24.9423C28.8659 24.9245 28.8787 24.9 28.8816 24.8739C28.8849 24.8466 28.8787 24.8196 28.8609 24.7981C28.8265 24.7525 28.761 24.7442 28.7167 24.7799Z" fill="#143850"/>
</svg>
