<svg width="25" height="25" viewBox="0 0 25 25" fill="none" xmlns="http://www.w3.org/2000/svg">
<path d="M21.1201 8.95C20.0701 4.33 16.0401 2.25 12.5001 2.25C12.5001 2.25 12.5001 2.25 12.4901 2.25C8.9601 2.25 4.9201 4.32 3.8701 8.94C2.7001 14.1 5.8601 18.47 8.7201 21.22C9.7801 22.24 11.1401 22.75 12.5001 22.75C13.8601 22.75 15.2201 22.24 16.2701 21.22C19.1301 18.47 22.2901 14.11 21.1201 8.95ZM12.5001 13.96C10.7601 13.96 9.3501 12.55 9.3501 10.81C9.3501 9.07 10.7601 7.66 12.5001 7.66C14.2401 7.66 15.6501 9.07 15.6501 10.81C15.6501 12.55 14.2401 13.96 12.5001 13.96Z" fill="#143850"/>
</svg>
