<svg width="30" height="29" viewBox="0 0 30 29" fill="none" xmlns="http://www.w3.org/2000/svg">
<path d="M21.042 3.41663H8.95866C5.62366 3.41663 2.91699 6.11121 2.91699 9.43413V16.66V17.8683C2.91699 21.1912 5.62366 23.8858 8.95866 23.8858H10.7712C11.0974 23.8858 11.5324 24.1033 11.7378 24.3691L13.5503 26.7737C14.3478 27.837 15.6528 27.837 16.4503 26.7737L18.2628 24.3691C18.4924 24.067 18.8549 23.8858 19.2295 23.8858H21.042C24.377 23.8858 27.0837 21.1912 27.0837 17.8683V9.43413C27.0837 6.11121 24.377 3.41663 21.042 3.41663ZM16.2087 17.6145H8.95866C8.46324 17.6145 8.05241 17.2037 8.05241 16.7083C8.05241 16.2129 8.46324 15.802 8.95866 15.802H16.2087C16.7041 15.802 17.1149 16.2129 17.1149 16.7083C17.1149 17.2037 16.7041 17.6145 16.2087 17.6145ZM21.042 11.5729H8.95866C8.46324 11.5729 8.05241 11.162 8.05241 10.6666C8.05241 10.1712 8.46324 9.76038 8.95866 9.76038H21.042C21.5374 9.76038 21.9482 10.1712 21.9482 10.6666C21.9482 11.162 21.5374 11.5729 21.042 11.5729Z" fill="#143850"/>
</svg>
