<svg width="29" height="30" viewBox="0 0 29 30" fill="none" xmlns="http://www.w3.org/2000/svg">
<path d="M11.7165 24.7107L11.7165 24.7107L11.7121 24.705C11.54 24.4823 11.2998 24.3099 11.0676 24.1939C10.8366 24.0783 10.5534 23.9886 10.2707 23.9886H8.45817C5.45219 23.9886 3.0165 21.5603 3.0165 18.5711V17.3627V10.1369C3.0165 7.14769 5.45219 4.71938 8.45817 4.71938H20.5415C23.5475 4.71938 25.9832 7.14769 25.9832 10.1369V18.5711C25.9832 21.5603 23.5475 23.9886 20.5415 23.9886H18.729C18.1641 23.9886 17.626 24.2597 17.2846 24.7088L17.2832 24.7107L15.4707 27.1153L15.4698 27.1165C15.1678 27.5192 14.8105 27.674 14.4998 27.674C14.1892 27.674 13.8319 27.5192 13.5298 27.1165L13.529 27.1153L11.7165 24.7107ZM8.45817 18.9173H15.7082C16.535 18.9173 17.2144 18.2378 17.2144 17.4111C17.2144 16.5843 16.535 15.9048 15.7082 15.9048H8.45817C7.63138 15.9048 6.95192 16.5843 6.95192 17.4111C6.95192 18.2378 7.63138 18.9173 8.45817 18.9173ZM8.45817 12.8756H20.5415C21.3683 12.8756 22.0478 12.1962 22.0478 11.3694C22.0478 10.5426 21.3683 9.86313 20.5415 9.86313H8.45817C7.63138 9.86313 6.95192 10.5426 6.95192 11.3694C6.95192 12.1962 7.63138 12.8756 8.45817 12.8756Z" stroke="#143850" stroke-width="1.2"/>
</svg>
