<svg width="40" height="40" viewBox="0 0 40 40" fill="none" xmlns="http://www.w3.org/2000/svg">
<path d="M10.9375 23.5205C11.1878 23.5205 11.3906 23.3176 11.3906 23.0674C11.3906 22.8171 11.1878 22.6143 10.9375 22.6143C10.6872 22.6143 10.4844 22.8171 10.4844 23.0674C10.4844 23.3176 10.6872 23.5205 10.9375 23.5205Z" fill="#B0B0B0"/>
<path d="M20 18.083C17.2516 18.083 15.0156 20.319 15.0156 23.0674C15.0156 25.8158 17.2516 28.0518 20 28.0518C22.7484 28.0518 24.9844 25.8158 24.9844 23.0674C24.9844 20.319 22.7484 18.083 20 18.083ZM20.0224 22.6144C21.0115 22.6264 21.8125 23.4348 21.8125 24.4268C21.8125 25.2398 21.2743 25.9296 20.5355 26.1585C20.4871 26.1736 20.4531 26.2169 20.4531 26.2675V26.6769C20.4531 26.9182 20.271 27.1289 20.0302 27.1445C19.7663 27.1616 19.5469 26.9526 19.5469 26.6924V26.2693C19.5469 26.2195 19.5153 26.1742 19.4677 26.1595C18.7375 25.9348 18.2026 25.2602 18.1878 24.4608C18.1831 24.2087 18.3686 23.985 18.6205 23.9741C18.8799 23.9629 19.0937 24.1699 19.0937 24.4268C19.0937 24.9408 19.5239 25.3563 20.0433 25.332C20.5043 25.3104 20.8836 24.9311 20.9052 24.4701C20.9295 23.9508 20.514 23.5205 19.9999 23.5205C19.0005 23.5205 18.1874 22.7074 18.1874 21.708C18.1874 20.8949 18.7256 20.2052 19.4645 19.9762C19.5128 19.9612 19.5468 19.9179 19.5468 19.8672V19.4579C19.5468 19.2166 19.7289 19.0059 19.9698 18.9902C20.2336 18.9731 20.4531 19.1821 20.4531 19.4424V19.8654C20.4531 19.9153 20.4846 19.9606 20.5323 19.9753C21.2624 20.2 21.7973 20.8745 21.8122 21.674C21.8168 21.9261 21.6314 22.1498 21.3795 22.1607C21.1201 22.1719 20.9062 21.9649 20.9062 21.708C20.9062 21.2083 20.4997 20.8018 20 20.8018C19.4971 20.8018 19.0885 21.2136 19.0938 21.7177C19.0991 22.2179 19.5222 22.6083 20.0224 22.6144Z" fill="#B0B0B0"/>
<path d="M33.1406 15.3643H6.85938C6.10985 15.3643 5.5 15.9741 5.5 16.7236V29.4111C5.5 30.1607 6.10985 30.7705 6.85938 30.7705H33.1406C33.8902 30.7705 34.5 30.1607 34.5 29.4111V16.7236C34.5 15.9741 33.8902 15.3643 33.1406 15.3643ZM15.0156 28.958H9.125C8.87601 28.958 8.67097 28.7572 8.67188 28.5082C8.67369 28.0059 8.26463 27.5968 7.76234 27.5986C7.51335 27.5995 7.3125 27.3945 7.3125 27.1455V18.9893C7.3125 18.7403 7.51335 18.5352 7.76234 18.5361C8.26463 18.5379 8.67369 18.1289 8.67188 17.6266C8.67097 17.3776 8.87601 17.1768 9.125 17.1768H15.0001C15.2415 17.1768 15.4522 17.3589 15.4678 17.5997C15.4849 17.8636 15.2759 18.083 15.0156 18.083H9.64723C9.57405 18.083 9.50948 18.13 9.48642 18.1995C9.30653 18.7416 8.87725 19.1708 8.33526 19.3507C8.26576 19.3737 8.21875 19.4383 8.21875 19.5115V26.6232C8.21875 26.6964 8.26576 26.761 8.33526 26.784C8.87731 26.9639 9.30659 27.3932 9.48642 27.9352C9.50948 28.0046 9.57405 28.0517 9.64723 28.0517H15C15.2414 28.0517 15.4521 28.2338 15.4677 28.4746C15.4849 28.7386 15.2758 28.958 15.0156 28.958ZM12.2969 23.0674C12.2969 23.8169 11.687 24.4268 10.9375 24.4268C10.188 24.4268 9.57812 23.8169 9.57812 23.0674C9.57812 22.3179 10.188 21.708 10.9375 21.708C11.687 21.708 12.2969 22.3178 12.2969 23.0674ZM20 28.958C16.7519 28.958 14.1094 26.3155 14.1094 23.0674C14.1094 19.8193 16.7519 17.1768 20 17.1768C23.2481 17.1768 25.8906 19.8193 25.8906 23.0674C25.8906 26.3155 23.2481 28.958 20 28.958ZM32.6875 27.1455C32.6875 27.3945 32.4867 27.5995 32.2377 27.5986C31.7354 27.5968 31.3263 28.0059 31.3281 28.5082C31.329 28.7572 31.124 28.958 30.875 28.958H24.9999C24.7585 28.958 24.5478 28.7759 24.5322 28.5351C24.5151 28.2712 24.7241 28.0518 24.9844 28.0518H30.3528C30.426 28.0518 30.4905 28.0047 30.5136 27.9352C30.6935 27.3932 31.1227 26.9639 31.6647 26.7841C31.7342 26.761 31.7812 26.6965 31.7812 26.6233V19.5115C31.7812 19.4383 31.7342 19.3737 31.6647 19.3507C31.1227 19.1708 30.6934 18.7415 30.5136 18.1995C30.4905 18.1301 30.426 18.083 30.3528 18.083H25C24.7586 18.083 24.5479 17.9009 24.5323 17.6601C24.5152 17.3962 24.7242 17.1768 24.9844 17.1768H30.8751C31.1241 17.1768 31.3291 17.3776 31.3282 17.6266C31.3264 18.1289 31.7354 18.5379 32.2377 18.5361C32.4867 18.5352 32.6876 18.7403 32.6876 18.9893V27.1455H32.6875ZM27.7031 23.0674C27.7031 22.3179 28.313 21.708 29.0625 21.708C29.812 21.708 30.4219 22.3179 30.4219 23.0674C30.4219 23.8169 29.812 24.4268 29.0625 24.4268C28.313 24.4268 27.7031 23.8169 27.7031 23.0674Z" fill="#B0B0B0"/>
<path d="M29.0625 23.5205C29.3128 23.5205 29.5156 23.3176 29.5156 23.0674C29.5156 22.8171 29.3128 22.6143 29.0625 22.6143C28.8122 22.6143 28.6094 22.8171 28.6094 23.0674C28.6094 23.3176 28.8122 23.5205 29.0625 23.5205Z" fill="#B0B0B0"/>
<path d="M32.798 13.0471C32.7046 12.298 32.0181 11.7651 31.2607 11.8695L13.951 14.3453C13.8814 14.3553 13.8887 14.458 13.959 14.458H32.8458C32.914 14.458 32.9667 14.3983 32.9583 14.3307L32.798 13.0471Z" fill="#B0B0B0"/>
<path d="M30.2603 11.0971C30.3268 11.0876 30.37 11.0228 30.3537 10.9576L30.1791 10.2587C29.9956 9.52231 29.2448 9.07723 28.5025 9.27712L14.2584 13.2719C14.1903 13.291 14.2113 13.3925 14.2813 13.3825C17.8608 12.8706 27.6248 11.4745 30.2603 11.0971Z" fill="#B0B0B0"/>
</svg>
