<svg width="40" height="41" viewBox="0 0 40 41" fill="none" xmlns="http://www.w3.org/2000/svg">
<path d="M30.0177 8.17841L29.2606 7.375H31.2499C32.2855 7.375 33.1249 8.21447 33.1249 9.25V34.875C33.1249 35.5653 33.6846 36.125 34.3749 36.125C35.0652 36.125 35.6249 35.5653 35.6249 34.875V9.25C35.6249 6.83375 33.6662 4.875 31.2499 4.875H10.7438C9.4523 4.875 8.21805 5.40781 7.33233 6.34772L5.60717 8.17841C4.66773 9.17531 5.37452 10.8125 6.74433 10.8125H28.8805C30.2503 10.8125 30.9571 9.17531 30.0177 8.17841Z" fill="#B0B0B0"/>
<path d="M5 32.6426V34.5626C5 35.4254 5.69956 36.1251 6.5625 36.1251H10.3125C11.1754 36.1251 11.875 35.4254 11.875 34.5626V34.2501H9.0625C7.491 34.2501 6.06206 33.6395 5 32.6426Z" fill="#B0B0B0"/>
<path d="M23.75 34.2501H26.5625C28.134 34.2501 29.5629 33.6395 30.625 32.6426V34.5626C30.625 35.4254 29.9254 36.1251 29.0625 36.1251H25.3125C24.4496 36.1251 23.75 35.4254 23.75 34.5626V34.2501Z" fill="#B0B0B0"/>
<path d="M12.6808 13.2466C12.9895 12.6291 12.7393 11.8782 12.1218 11.5695C11.5043 11.2608 10.7535 11.511 10.4447 12.1285L10.1322 12.7535C9.82351 13.371 10.0738 14.1218 10.6913 14.4306C11.3087 14.7393 12.0596 14.489 12.3683 13.8716L12.6808 13.2466Z" fill="#B0B0B0"/>
<path d="M23.1913 11.5695C23.8087 11.2608 24.5596 11.511 24.8683 12.1285L25.1808 12.7535C25.4895 13.371 25.2393 14.1218 24.6218 14.4306C24.0043 14.7393 23.2535 14.489 22.9447 13.8716L22.6322 13.2466C22.3235 12.6291 22.5738 11.8782 23.1913 11.5695Z" fill="#B0B0B0"/>
<path d="M15.625 11.4375C16.3153 11.4375 16.875 11.9972 16.875 12.6875V13.3125C16.875 14.0028 16.3153 14.5625 15.625 14.5625C14.9347 14.5625 14.375 14.0028 14.375 13.3125V12.6875C14.375 11.9972 14.9347 11.4375 15.625 11.4375Z" fill="#B0B0B0"/>
<path d="M19.6875 11.4375C20.3778 11.4375 20.9375 11.9972 20.9375 12.6875V13.3125C20.9375 14.0028 20.3778 14.5625 19.6875 14.5625C18.9972 14.5625 18.4375 14.0028 18.4375 13.3125V12.6875C18.4375 11.9972 18.9972 11.4375 19.6875 11.4375Z" fill="#B0B0B0"/>
<path fill-rule="evenodd" clip-rule="evenodd" d="M26.8359 19.875L26.2074 17.7418C25.8158 16.4126 24.5955 15.5 23.2098 15.5H12.4152C11.0295 15.5 9.80925 16.4126 9.41759 17.7418L8.78906 19.875H6.875C6.18466 19.875 5.625 20.4347 5.625 21.125C5.625 21.7683 6.11091 22.2981 6.73572 22.3673C5.32528 23.1754 4.375 24.6955 4.375 26.4375V28.3125C4.375 30.9013 6.47366 33 9.0625 33H26.5625C29.1513 33 31.25 30.9013 31.25 28.3125V26.4375C31.25 24.6955 30.2997 23.1754 28.8893 22.3673C29.5141 22.2981 30 21.7683 30 21.125C30 20.4347 29.4403 19.875 28.75 19.875H26.8359ZM24.7821 21.75H10.8429L11.8157 18.4483C11.894 18.1825 12.1381 18 12.4152 18H23.2098C23.487 18 23.731 18.1825 23.8093 18.4483L24.7821 21.75ZM10.9375 26.5938C10.9375 27.3704 10.3079 28 9.53125 28C8.75459 28 8.125 27.3704 8.125 26.5938C8.125 25.8171 8.75459 25.1875 9.53125 25.1875C10.3079 25.1875 10.9375 25.8171 10.9375 26.5938ZM26.0938 28C26.8704 28 27.5 27.3704 27.5 26.5938C27.5 25.8171 26.8704 25.1875 26.0938 25.1875C25.3171 25.1875 24.6875 25.8171 24.6875 26.5938C24.6875 27.3704 25.3171 28 26.0938 28ZM13.125 29.5625C13.125 29.2173 13.4048 28.9375 13.75 28.9375H21.875C22.2202 28.9375 22.5 29.2173 22.5 29.5625C22.5 29.9077 22.2202 30.1875 21.875 30.1875H13.75C13.4048 30.1875 13.125 29.9077 13.125 29.5625Z" fill="#B0B0B0"/>
</svg>
