<svg width="41" height="40" viewBox="0 0 41 40" fill="none" xmlns="http://www.w3.org/2000/svg">
<path d="M38.4705 17.6C38.2381 17.225 35.9445 16.2657 35.9445 16.2657C36.3434 16.0662 36.6161 16.025 36.6161 15.2C36.6161 14.3 36.6115 14 35.9918 14H33.8895C33.881 13.982 33.8717 13.9633 33.8632 13.9445C32.506 11.075 32.324 10.3498 30.3 9.37325C27.585 8.066 22.4951 8 20.4997 8C18.5043 8 13.4144 8.066 10.7017 9.37325C8.67532 10.3482 8.72567 10.85 7.13854 13.9445C7.13854 13.9528 7.12227 13.9745 7.10755 14H5.00295C4.38792 14 4.38327 14.3 4.38327 15.2C4.38327 16.025 4.65593 16.0662 5.05485 16.2657C5.05485 16.2657 2.83871 17.3 2.52886 17.6C2.21902 17.9 1.90918 20 1.90918 23.6C1.90918 27.2 2.21902 30.8 2.21902 30.8H3.1439C3.1439 31.85 3.30347 32 3.76823 32H9.96504C10.4298 32 10.5847 31.85 10.5847 30.8H30.4146C30.4146 31.85 30.5695 32 31.0343 32H37.3861C37.6959 32 37.8508 31.775 37.8508 30.8H38.7803C38.7803 30.8 39.0902 27.125 39.0902 23.6C39.0902 20.075 38.7029 17.975 38.4705 17.6ZM10.3725 20.9705C8.96177 21.1198 7.54376 21.1965 6.12458 21.2C4.54284 21.2 4.48861 21.2983 4.37707 20.342C4.33511 19.9043 4.34838 19.4633 4.41658 19.0288L4.46538 18.8H4.69776C5.62728 18.8 6.50026 18.8383 8.14862 19.3085C8.98702 19.5521 9.77557 19.9342 10.4794 20.438C10.8171 20.675 10.8946 20.9 10.8946 20.9L10.3725 20.9705ZM29.5176 26.3705L29.1752 27.2H11.8241C11.8241 27.2 11.8543 27.1542 11.4368 26.3615C11.1269 25.775 11.5143 25.4 12.127 25.187C13.3137 24.773 16.7816 23.6 20.4997 23.6C24.2178 23.6 27.7546 24.611 28.9041 25.187C29.3302 25.4 29.8592 25.55 29.5176 26.375V26.3705ZM9.61027 16.1308C9.36007 16.1447 9.10933 16.1465 8.8589 16.136C9.06108 15.788 9.17339 15.4003 9.37092 14.9953C9.9906 13.7203 10.6994 12.2772 11.9612 11.669C13.7846 10.79 17.5639 10.394 20.4997 10.394C23.4354 10.394 27.2147 10.787 29.0381 11.669C30.3 12.2772 31.0056 13.721 31.6284 14.9953C31.8275 15.404 31.9383 15.7948 32.1459 16.145C31.9909 16.1533 31.8128 16.145 31.3875 16.1308H9.61027ZM36.5448 20.339C36.3791 21.275 36.534 21.2 34.8748 21.2C33.4556 21.1965 32.0376 21.1198 30.6269 20.9705C30.4061 20.9323 30.3433 20.5715 30.52 20.438C31.2203 19.9286 32.0099 19.5459 32.8507 19.3085C34.4991 18.8383 35.4271 18.7753 36.3434 18.8068C36.405 18.809 36.4635 18.8333 36.5077 18.8748C36.5519 18.9163 36.5787 18.9723 36.5828 19.0317C36.6266 19.4683 36.6138 19.9085 36.5448 20.342V20.339Z" fill="#143850"/>
</svg>
