<svg width="390" height="493" viewBox="0 0 390 493" fill="none" xmlns="http://www.w3.org/2000/svg">
<g clip-path="url(#clip0_6_600)">
<path d="M30.5839 363.501C36.6494 396.97 68.758 419.175 102.301 413.097C135.843 407.018 158.118 374.958 152.052 341.488C145.987 308.018 113.878 285.813 80.3356 291.892C46.7931 297.97 24.5185 330.031 30.5839 363.501Z" fill="white"/>
<path d="M59.8155 352.83C79.8161 352.83 96.0299 336.575 96.0299 316.524C96.0299 296.473 79.8161 280.218 59.8155 280.218C39.8148 280.218 23.6011 296.473 23.6011 316.524C23.6011 336.575 39.8148 352.83 59.8155 352.83Z" fill="white"/>
<path d="M71.3624 335.345C76.133 299.432 50.9604 266.442 15.138 261.66C-20.6845 256.877 -53.5916 282.113 -58.3622 318.026C-63.1327 353.939 -37.9602 386.929 -2.13771 391.712C33.6848 396.494 66.5919 371.258 71.3624 335.345Z" fill="white"/>
<path fill-rule="evenodd" clip-rule="evenodd" d="M719.437 146.112C663.938 136.786 627.338 190.612 678.878 225.313C699.729 239.351 719.978 256.735 719.581 282.239C719.279 301.304 715.327 390.188 702.634 470.842H552.118C544.138 448.994 535.808 424.415 527.074 396.477C496.975 300.248 452.1 290.592 366.228 260.356C211.205 205.768 274.636 -3.24375 420.254 43.9379C463.334 57.8935 509.99 82.7118 554.632 85.0572C614.933 88.2324 646.552 35.8662 684.591 12.3714C791.177 -53.4771 837.107 165.883 719.437 146.112Z" fill="#F6B551"/>
<path fill-rule="evenodd" clip-rule="evenodd" d="M281.747 141.593C329.813 135.442 358.789 183.775 313.723 211.618C297.94 221.37 280.5 234.42 280.027 254.513C279.842 262.372 279.856 284.907 280.925 313.792H276.088C275.02 284.852 275.006 262.297 275.191 254.417C275.712 232.239 293.878 218.188 311.181 207.496C351.98 182.294 324.936 140.941 282.349 146.393C181.709 159.279 227.727 -24.7977 315.915 34.5565C346.795 55.3425 369.811 97.9088 417.699 97.2642C453.518 96.7841 492.207 78.1584 527.43 68.2488C569.517 56.4123 602.63 69.3941 622.707 93.1975C639.73 113.373 646.991 140.852 643.21 167.125C638.23 201.736 614.111 235.332 565.777 250.255C515.58 265.747 477.569 273.53 451.566 313.792H445.757C472.541 269.875 511.189 262.036 564.352 245.619C610.617 231.341 633.674 199.356 638.415 166.439C641.997 141.518 635.147 115.458 619.015 96.3247C600.075 73.8791 568.722 61.6722 528.739 72.919C492.872 83.0068 454.566 101.612 417.754 102.106C367.358 102.785 343.972 59.2788 313.223 38.582C252.716 -2.14642 214.582 82.0536 236.208 122.131C243.626 135.867 258.258 144.597 281.747 141.593Z" fill="white"/>
<path fill-rule="evenodd" clip-rule="evenodd" d="M273.794 201.852C279.308 201.852 283.781 206.33 283.781 211.851C283.781 217.371 279.308 221.85 273.794 221.85C268.279 221.85 263.806 217.371 263.806 211.851C263.806 206.33 268.286 201.852 273.794 201.852Z" fill="white"/>
<path fill-rule="evenodd" clip-rule="evenodd" d="M246.147 183.864C249.825 183.864 252.805 186.854 252.805 190.53C252.805 194.206 249.825 197.196 246.147 197.196C242.475 197.196 239.489 194.213 239.489 190.53C239.489 186.847 242.475 183.864 246.147 183.864Z" fill="white"/>
<path fill-rule="evenodd" clip-rule="evenodd" d="M48.3179 402.477C53.8322 402.477 58.3053 406.955 58.3053 412.476C58.3053 417.996 53.8322 422.474 48.3179 422.474C42.8036 422.474 38.3306 417.996 38.3306 412.476C38.3306 406.955 42.8036 402.477 48.3179 402.477Z" fill="white"/>
<path fill-rule="evenodd" clip-rule="evenodd" d="M32.3091 376.541C35.9807 376.541 38.9674 379.524 38.9674 383.207C38.9674 386.882 35.9876 389.872 32.3091 389.872C28.6375 389.872 25.6509 386.889 25.6509 383.207C25.6577 379.524 28.6375 376.541 32.3091 376.541Z" fill="white"/>
<path fill-rule="evenodd" clip-rule="evenodd" d="M147.835 212.331C150.246 205.336 155.781 199.795 162.768 197.381C155.781 194.967 150.253 189.426 147.835 182.431C145.424 189.426 139.889 194.967 132.902 197.381C139.889 199.795 145.424 205.336 147.835 212.331Z" fill="white"/>
<path fill-rule="evenodd" clip-rule="evenodd" d="M671.898 351.099C681.31 343.541 692.503 339.152 704.518 339.152C736.658 339.152 762.921 370.52 764.777 410.076C764.853 410.508 764.901 410.946 764.901 411.399V430.608C764.901 434.633 761.606 437.932 757.578 437.932H751.947C744.481 461.53 726.061 478.221 704.518 478.221H667.753C646.162 478.221 627.708 461.454 620.283 437.774C619.789 437.877 619.282 437.932 618.762 437.932H601.753C594.287 461.53 575.867 478.221 554.324 478.221H517.559C489.406 478.221 466.581 449.714 466.581 414.554C466.581 379.394 489.406 350.886 517.559 350.886C524.046 350.886 530.239 352.401 535.945 355.151C541.644 352.395 547.843 350.886 554.324 350.886C578.285 350.886 598.383 371.542 603.836 399.371H618.241C623.694 371.542 643.792 350.886 667.753 350.886C669.151 350.893 670.534 350.961 671.898 351.099ZM427.666 421.267C427.748 421.706 427.796 422.166 427.796 422.632V432.377V446.545C427.796 450.571 424.502 453.869 420.481 453.869H407.322C397.992 468.703 383.497 478.235 367.221 478.235H330.457C302.304 478.235 279.486 449.727 279.486 414.567C279.486 379.407 302.31 350.9 330.457 350.9C331.855 350.9 333.232 350.968 334.602 351.105C344.007 343.548 355.206 339.159 367.221 339.159C400.561 339.159 427.591 372.92 427.591 414.561L427.666 421.267ZM249.202 415.466C252.504 416.172 254.997 419.128 254.997 422.632V446.538C254.997 450.564 251.702 453.863 247.681 453.863H238.345C229.015 468.696 214.52 478.228 198.238 478.228H161.474C133.32 478.228 110.502 449.72 110.502 414.561C110.502 379.401 144.157 350.893 161.474 350.893C178.79 350.893 174.153 352.408 179.852 355.158C185.558 352.401 180.914 350.893 198.231 350.893C215.548 350.893 249.209 396.826 249.209 414.561C249.216 432.288 249.209 415.164 249.202 415.466Z" fill="#152F4E"/>
<path fill-rule="evenodd" clip-rule="evenodd" d="M233.282 432.377L95.4663 432.384L111.208 373.482C112.934 367.029 114.681 365.143 121.353 365.136L181.975 365.102C188.647 365.095 192.374 369.1 195.998 374.696L233.282 432.377Z" fill="#152F4E"/>
<path fill-rule="evenodd" clip-rule="evenodd" d="M76.5056 425.087C77.3893 422.694 78.5196 419.649 78.4305 415.843C78.3072 410.611 77.0194 410.604 76.6084 404.912H87.6301C88.5617 404.912 89.2536 404.198 89.2536 403.293V389.639C89.2536 388.858 88.3357 387.26 87.9932 387.088L74.1972 382C74.0054 371.137 77.4167 358.258 81.1226 346.278C83.3488 339.07 92.7745 311.673 108.146 305.193C136.437 293.26 179.434 273.928 228.659 264.814C290.247 231.183 300.324 223.818 363.872 199.809C399.684 179.194 609.179 183.329 709.58 195.036C723.458 195.866 718.519 211.206 717.272 219.017L746.44 256.722L766.572 264.279C769.292 265.301 771.298 267.269 772.34 269.621L782.081 287.259C784.327 292.108 782.142 295.214 779.56 299.117C781.265 303.019 789.115 324.422 789.711 341.402C801.35 350.461 794.623 380.834 787.218 388.22L764.839 411.406C763.517 371.226 737.021 339.159 704.524 339.159C671.185 339.159 644.155 372.92 644.155 414.561C644.155 420.698 639.743 432.055 631.606 432.363L427.783 432.377H427.803L427.598 414.567C427.598 372.927 400.567 339.166 367.228 339.166C333.882 339.166 306.859 372.927 306.859 414.567C306.859 420.705 305.393 432.453 297.639 432.384H297.652L85.808 432.391C70.2241 432.384 74.5945 430.286 76.5056 425.087Z" fill="#E4E2DE"/>
<path fill-rule="evenodd" clip-rule="evenodd" d="M233.282 432.377L95.4663 432.384L111.208 373.482C112.934 367.029 114.681 365.143 121.353 365.136L181.975 365.102C188.647 365.102 192.374 369.1 195.998 374.696L233.282 432.377Z" fill="#152F4E"/>
<path fill-rule="evenodd" clip-rule="evenodd" d="M231.289 432.377L103.46 432.384L116.284 384.414C118.01 377.96 119.757 376.075 126.429 376.068L187.052 376.033C193.723 376.027 197.457 380.032 201.067 385.628L231.289 432.377Z" fill="#6B7193"/>
<path fill-rule="evenodd" clip-rule="evenodd" d="M351.432 204.78C355.371 203.21 359.495 201.557 363.865 199.809C422.378 169.826 642.36 186.532 709.573 195.036C715.834 195.413 718.266 198.746 718.937 203.004C580.772 194.11 452.429 188.774 351.432 204.78Z" fill="#FAF9F4"/>
<path fill-rule="evenodd" clip-rule="evenodd" d="M94.542 316.158C97.3231 311.323 99.7069 308.073 102.207 305.035C119.572 283.981 202.622 269.628 228.652 264.814C279.76 259.259 341.438 262.811 404.732 273.64C374.798 277.185 323.984 287.033 290.522 301.037L212.931 316.782L94.542 316.158Z" fill="#152F4E"/>
<path fill-rule="evenodd" clip-rule="evenodd" d="M92.9457 314.821H224.439V322.467C224.878 322.261 225.343 322.104 225.837 322.001L288.008 297.141C290.186 296.675 292.563 297.326 294.118 299.034C297.604 302.381 317.716 313.312 309.619 319.484L271.656 356.886C270.54 357.888 269.026 358.498 267.361 358.498L233.276 354.843C232.214 354.843 231.138 354.589 230.159 354.054L209.821 339.324C209.232 339.001 207.019 338.151 204.649 338.151H102.913C100.645 338.151 98.4258 339.509 97.9874 339.948L87.6643 354.095C87.1643 354.603 86.6231 354.843 86.082 354.843L77.0947 359.252C82.6364 341.964 85.945 328.296 92.9457 314.821Z" fill="#FAF9F4"/>
<path fill-rule="evenodd" clip-rule="evenodd" d="M228.652 264.725C269.067 239.234 319.127 213.243 363.865 199.267C412.137 190.283 547.48 188.48 630.119 199.308C664.698 203.841 742.158 247.532 681.933 257.812C678.069 258.47 674.521 258.985 669.466 259.389L470.938 275.471C460.587 277.693 447.942 277.741 439.078 277.823C438.9 277.782 438.729 277.741 438.558 277.686C424.988 277.322 411.418 275.039 397.663 272.57C360.837 265.966 262.34 258.875 228.652 264.725Z" fill="#152F4E"/>
<path fill-rule="evenodd" clip-rule="evenodd" d="M233.166 262.009C270.101 238.871 314.455 215.266 355.343 202.572C378.476 198.293 428.022 195.331 480.932 195.084C464.958 215.698 417.213 259.952 398.355 270.718C395.039 270.177 391.717 269.594 388.374 268.997C354.727 263.003 263.957 256.708 233.166 262.009ZM497.68 195.097C521.251 195.248 545.001 195.955 566.955 197.347C573.182 218.784 576.312 240.578 577.333 262.633L484.823 269.566C489.988 265.116 491.104 258.223 484.412 247.532C483.288 244.906 460.848 244.453 451.525 245.9C464.499 227.459 484.549 206.605 497.68 195.097ZM578.504 198.163C592.047 199.205 604.719 200.536 616.001 202.182C650.203 207.174 728.369 251.325 651.964 257.044L595.622 261.268C592.327 239.803 587.416 218.627 578.504 198.163Z" fill="#83929B"/>
<path fill-rule="evenodd" clip-rule="evenodd" d="M682.748 247.628C679.254 252.195 669.842 255.707 651.964 257.044L595.622 261.268C595.321 259.286 594.999 257.298 594.663 255.323C624.55 254.191 654.204 251.969 682.748 247.628ZM577.333 262.633L484.823 269.566C488.412 266.473 490.043 262.201 488.46 256.296C517.443 256.392 547.227 256.571 576.949 255.858C577.1 258.114 577.23 260.37 577.333 262.633ZM398.355 270.725C395.039 270.183 391.717 269.601 388.374 269.004C372.105 266.103 355.179 264.67 338.725 263.237C362.659 259.355 389.251 257.586 417.514 256.818C409.911 263.01 403.184 267.968 398.355 270.725Z" fill="#A4ACB1"/>
<path fill-rule="evenodd" clip-rule="evenodd" d="M233.166 262.009C270.101 238.871 314.455 215.266 355.343 202.572C378.476 198.293 428.022 195.331 480.932 195.084C475.007 202.73 464.711 213.634 453.135 224.874C382.73 216.089 340.78 223.413 278.006 260.109C259.422 259.794 243.147 260.295 233.166 262.009ZM497.68 195.097C507.75 195.159 517.861 195.331 527.841 195.605C541.219 195.975 554.385 196.551 566.955 197.347C568.846 203.855 570.455 210.397 571.798 216.974C537.185 216.219 501.393 217.845 469.636 223.31C479.466 212.235 489.81 201.99 497.68 195.097ZM578.504 198.163C592.047 199.205 604.719 200.536 616.001 202.182C631.373 204.424 655.615 214.539 670.719 225.532C646.58 221.74 616.926 218.661 585.717 217.406C583.648 210.932 581.265 204.513 578.504 198.163Z" fill="#C8D3D9"/>
<path fill-rule="evenodd" clip-rule="evenodd" d="M87.9931 387.088L77.3139 383.152C76.8139 382.898 75.9028 385.634 75.8343 386.553C75.6151 388.35 76.1905 401.606 78.6634 404.918H87.6369C90.2947 404.912 89.9728 388.089 87.9931 387.088Z" fill="#152F4E"/>
<path fill-rule="evenodd" clip-rule="evenodd" d="M208.102 432.377L107.66 432.384L110.797 415.274C112.174 407.758 114.27 405.68 120.942 405.673L185.202 405.639C191.874 405.639 195.587 410.247 199.217 416.673L208.102 432.377Z" fill="#FAF9F4"/>
<path fill-rule="evenodd" clip-rule="evenodd" d="M107.66 432.384H228.186C228.186 437.5 224.001 441.676 218.898 441.676H116.948C111.845 441.676 107.66 437.5 107.66 432.384Z" fill="#6B7193"/>
<path fill-rule="evenodd" clip-rule="evenodd" d="M312.181 337.513C303.194 349.158 297.2 364.245 295.323 382.171C294.248 392.417 290.912 394.261 281.507 393.939H231.323C225.261 393.939 219.596 389.331 215.603 384.763L192.059 357.819C188.627 353.896 179.722 354.308 174.509 354.308H111.489C107.653 354.308 103.926 354.246 102.419 357.778C96.1722 372.344 92.6649 389.523 88.048 403.293C87.7603 404.15 87.3562 404.912 86.4246 404.912H75.4028C75.8138 410.624 77.0811 410.528 77.2181 415.795H80.6774C85.8971 415.795 90.3359 409.685 91.6991 404.644L102.419 365.068C103.42 361.365 107.66 357.956 111.489 357.956H174.509C179.715 357.956 185.558 360.747 188.415 365.109L215.596 406.626C218.918 411.701 225.254 415.802 231.317 415.802H281.5C290.912 416.124 294.221 414.279 295.317 404.034C300.057 359.959 329.539 325.663 365.995 325.663C402.561 325.663 433.455 360.041 436.715 404.425C437.339 412.88 439.592 415.802 448.079 415.802H621.201C628.352 415.802 631.804 412.153 632.702 403.163C637.093 359.444 667.082 325.67 703.298 325.67C727.712 325.67 748.899 341.223 762.072 364.416C765.181 369.889 784.245 370.328 794.774 359.081C796.246 353.06 793.095 342.512 788.396 340.489C778.656 347.128 765.154 347.978 762.072 342.554C748.899 319.361 727.712 311.09 703.298 311.09C667.082 311.09 637.093 337.582 632.702 381.3C631.804 390.291 628.352 393.939 621.201 393.939H448.086C439.599 393.939 437.339 391.018 436.722 382.562C435.085 360.247 425.55 343.184 413.644 329.983C403.78 319.045 383.936 312.955 422.816 307.435C522.012 293.356 671.377 286.567 765.414 283.529C760.585 277.624 735.624 243.479 724.595 230.065C731.061 247.463 708.052 259.945 688.66 261.638C613.782 268.181 359.248 276.492 312.181 337.513Z" fill="#FAF9F4"/>
<path fill-rule="evenodd" clip-rule="evenodd" d="M221.432 387.088L259.436 381.355C265.738 380.402 276.876 404.912 268.266 404.912H231.447C224.261 404.912 215.781 388.302 221.432 387.088Z" fill="#152F4E"/>
<path fill-rule="evenodd" clip-rule="evenodd" d="M398.006 267.79C370.722 241.456 316.182 197.669 278.603 177.082C260.642 167.248 235.81 161.131 210.794 158.312C177.352 154.54 143.581 156.659 125.463 163.634C119.428 165.959 115.126 168.825 113.16 172.192C101.762 191.696 158.973 239.742 201.656 268.887C260.477 254.877 327.717 262.564 394.142 272.199C398.019 274.49 400.006 269.738 398.006 267.79Z" fill="#FAF9F4"/>
<path fill-rule="evenodd" clip-rule="evenodd" d="M396.8 274.915H396.834C373.016 250.543 315.154 203.347 276.184 181.999C258.854 172.508 234.899 166.61 210.759 163.887C178.489 160.246 145.91 162.29 128.429 169.024C122.606 171.266 118.455 174.03 116.558 177.281C105.556 196.099 160.761 242.457 201.943 270.574C261.409 256.413 329.738 264.999 396.8 274.915Z" fill="#152F4E"/>
<path fill-rule="evenodd" clip-rule="evenodd" d="M118.592 188.774C118.592 188.102 119.133 187.561 119.805 187.561C120.476 187.561 121.017 188.102 121.017 188.774V298.376C121.017 299.048 120.476 299.589 119.805 299.589C119.133 299.589 118.592 299.048 118.592 298.376V188.774Z" fill="#152F4E"/>
<path fill-rule="evenodd" clip-rule="evenodd" d="M201.128 270.019C274.992 248.526 356.138 256.132 394.135 272.2C349.946 263.874 278.006 260.102 201.128 270.019Z" fill="#83929B"/>
<path fill-rule="evenodd" clip-rule="evenodd" d="M82.4033 342.78C85.4447 328.728 91.5892 316.508 102.022 304.918L107.495 308.189C149.26 308.189 185.058 308.189 227.967 308.189L290.343 294.988C292.412 294.549 294.666 295.166 296.138 296.778C299.447 299.946 315.058 310.315 307.386 316.165L271.403 341.257C270.341 342.204 268.909 342.787 267.327 342.787L235.015 342.773C234.008 342.773 232.995 342.533 232.063 342.026L212.787 331.519C174.023 331.519 142.047 331.519 104.714 331.519L94.3909 342.026C93.8908 342.533 93.3497 342.773 92.8085 342.773H82.4033V342.78Z" fill="#152F4E"/>
<path fill-rule="evenodd" clip-rule="evenodd" d="M230.467 313.209L282.541 303.739C284.267 303.423 286.144 303.869 287.377 305.028L295.83 311.611C298.084 313.367 298.241 315.843 295.481 317.653L266.724 336.944C265.841 337.623 264.642 338.041 263.327 338.041L236.358 338.034C235.522 338.034 234.673 337.863 233.892 337.5L221.439 329.963C218.836 328.749 218.178 325.93 220.089 324.038L227.617 314.732C228.289 313.977 229.282 313.429 230.467 313.209Z" fill="#C8D3D9"/>
<path fill-rule="evenodd" clip-rule="evenodd" d="M297.536 314.786C297.604 315.815 296.57 316.933 295.481 317.646L268.642 335.648C267.813 336.279 266.889 336.19 265.663 336.19L240.489 336.183C239.708 336.183 238.913 336.018 238.187 335.682C234.817 333.645 228.385 330.306 225.61 328.056C245.489 319.429 275.766 315.993 297.536 314.786Z" fill="#83929B"/>
<path fill-rule="evenodd" clip-rule="evenodd" d="M83.6638 338.028C78.6154 338.028 92.3976 308.909 99.4052 310.521L102.762 313.209C103.323 313.429 103.796 313.977 104.111 314.711C104.837 318.798 103.892 327.57 101.488 329.949L93.8636 337.486C93.4937 337.849 93.0895 338.021 92.6922 338.021L83.6638 338.028Z" fill="white"/>
<path fill-rule="evenodd" clip-rule="evenodd" d="M84.8833 335.84C85.0614 333.261 86.3698 329.359 88.6645 324.854L100.495 326.616C101.303 326.733 101.31 327.569 100.885 327.974L92.9869 335.552C92.5279 335.751 92.0279 335.84 91.5347 335.84H84.8833Z" fill="#83929B"/>
<path fill-rule="evenodd" clip-rule="evenodd" d="M238.913 332.109C241.27 332.109 243.071 330.628 244.208 328.598L248.449 327.905L248.428 327.967C247.003 332.219 243.736 335.758 238.913 335.758C235.112 335.758 232.693 333.645 231.508 330.676L235.255 330.066C236.002 331.293 237.201 332.109 238.913 332.109ZM245.482 324.71C245.544 324.284 245.578 323.859 245.592 323.441C245.626 322.344 245.496 321.267 245.195 320.314C244.599 318.414 243.236 317.015 241.023 317.015C238.016 317.015 235.899 319.436 234.927 322.337C234.557 323.434 234.351 324.586 234.317 325.711C234.31 325.985 234.31 326.266 234.324 326.534L230.721 327.124C230.686 326.623 230.673 326.109 230.693 325.594C230.741 324.113 231.015 322.604 231.488 321.178C232.92 316.912 236.208 313.367 241.03 313.367C245.126 313.367 247.606 315.856 248.668 319.23C249.086 320.561 249.264 322.042 249.216 323.558C249.209 323.743 249.202 323.921 249.188 324.106L245.482 324.71ZM260.32 332.109C264.149 332.109 266.814 329.078 268.033 325.43C268.122 325.176 268.197 324.922 268.266 324.662L272.122 324.031C271.965 324.895 271.746 325.752 271.472 326.582C269.793 331.588 265.964 335.751 260.313 335.751C255.531 335.751 252.634 332.87 251.394 328.961C251.243 328.481 251.12 327.988 251.017 327.48L254.607 326.89C254.675 327.22 254.757 327.549 254.86 327.857C255.641 330.312 257.415 332.109 260.32 332.109ZM268.793 320.897C268.8 319.642 268.636 318.421 268.293 317.324C267.519 314.869 265.752 313.058 262.875 313.058C259.046 313.058 256.36 316.103 255.127 319.765C254.751 320.897 254.504 322.076 254.408 323.249L250.743 323.846C250.798 322.09 251.12 320.3 251.689 318.613C253.374 313.593 257.23 309.417 262.875 309.417C267.636 309.417 270.526 312.318 271.759 316.24C272.157 317.502 272.369 318.887 272.41 320.3L268.793 320.897Z" fill="white"/>
<path fill-rule="evenodd" clip-rule="evenodd" d="M231.796 402.491C230.453 402.491 229.371 401.4 229.371 400.063C229.371 398.719 230.46 397.635 231.796 397.635H263.765C265.108 397.635 266.19 398.726 266.19 400.063C266.19 401.407 265.101 402.491 263.765 402.491H231.796Z" fill="#EF7D00"/>
<path fill-rule="evenodd" clip-rule="evenodd" d="M74.8888 402.491C73.5462 402.491 72.4639 401.4 72.4639 400.063C72.4639 398.719 73.553 397.635 74.8888 397.635H83.2047C84.5473 397.635 85.6296 398.726 85.6296 400.063C85.6296 401.407 84.5405 402.491 83.2047 402.491H74.8888Z" fill="#EF7D00"/>
<path fill-rule="evenodd" clip-rule="evenodd" d="M370.859 469.066C396.574 469.066 417.418 443.034 417.418 410.912C417.418 378.797 396.574 352.758 370.859 352.758C345.143 352.758 324.299 378.79 324.299 410.912C324.299 443.034 345.143 469.066 370.859 469.066ZM370.859 453.424C389.655 453.424 404.896 434.393 404.896 410.912C404.896 387.438 389.655 368.401 370.859 368.401C352.062 368.401 336.821 387.431 336.821 410.912C336.821 434.393 352.062 453.424 370.859 453.424Z" fill="#6B7193"/>
<path fill-rule="evenodd" clip-rule="evenodd" d="M376.613 433.097C375.592 430.505 374.804 429.202 374.332 428.413C373.078 426.322 373.27 425.567 374.845 423.585C375.804 422.378 376.633 421.274 377.428 419.944C378.387 418.346 378.894 417.496 380.586 417.79C381.688 417.982 382.593 418.901 384.504 420.842C387.004 423.38 389.347 425.725 391.58 428.55C393.21 430.615 394.69 432.74 396.019 434.907C398.978 439.399 399.252 437.843 401.704 432.631C402.403 431.067 403.02 429.456 403.561 427.803C404.931 423.572 404.848 423.537 401.732 422.056C396.868 419.759 392.717 417.989 387.47 416.556C384.949 415.87 383.456 415.665 382.545 415.534C380.181 415.212 379.414 414.67 379.544 412.146C379.572 411.673 379.606 411.022 379.572 410.137C379.394 405.556 379.496 405.536 383.065 404.966C383.949 404.829 385.244 404.617 387.134 404.027C392.381 402.388 396.642 400.42 401.526 398.054C404.39 396.668 404.506 396.607 403.061 392.581C401.978 389.571 400.416 386.69 398.855 383.81C397.964 382.185 398.156 380.985 395.026 386.011C393.662 388.199 392.196 390.332 390.621 392.389C388.532 395.119 386.333 397.471 384.018 399.974C382.099 402.038 381.223 402.984 380.106 403.183C378.476 403.478 377.969 402.69 377.03 401.236C376.085 399.768 375.085 398.595 373.866 397.354C372.16 395.619 372.105 394.824 373.256 392.732C376.955 386.018 378.346 379.154 379.455 371.692C379.983 368.147 380.072 367.55 375.75 366.803C372.297 366.206 368.845 366.213 365.406 366.919C362.248 367.543 362.686 367.735 364.598 372.639C366.735 378.111 367.913 385.038 367.927 390.97C367.934 393.39 367.639 394.563 365.105 395.242C363.18 395.756 361.645 396.559 360.173 397.917C358.008 399.912 356.768 398.589 355.693 396.456C354.206 393.5 352.535 390.661 350.644 387.945C350.589 387.863 344.897 380.422 344.815 380.436C343.808 380.553 338.465 393.123 337.732 395.64C336.471 400.07 336.252 399.94 339.985 400.564C343.267 401.112 346.377 401.887 349.528 402.943C355.665 405.001 355.59 405.542 355.103 408.937C354.747 411.399 354.857 413.244 355.521 415.617C356.364 418.593 356.467 418.977 352.055 421.343C348.151 423.434 344.411 425.019 340.198 426.308C337.622 427.096 337.8 426.664 338.684 429.195C339.91 432.363 341.205 435.326 342.999 438.192C345.027 441.422 345.205 440.785 347.219 438.371C350.576 434.421 353.316 430.141 355.699 425.553C356.837 423.359 358.015 421.926 360.268 424.004C362.008 425.3 363.721 426.136 365.666 426.678C369.557 427.487 368.632 431.876 368.29 435.429C367.824 440.229 366.687 444.92 364.858 449.384C362.851 454.267 362.351 454.548 365.646 454.973C369.139 455.591 372.694 455.625 376.188 454.973C380.75 454.116 380.675 453.355 380.271 449.35C379.654 443.404 378.818 438.672 376.613 433.097ZM365.611 421.274C370.194 421.274 373.907 416.638 373.907 410.912C373.907 405.193 370.194 400.55 365.611 400.55C361.029 400.55 357.316 405.186 357.316 410.912C357.316 416.638 361.036 421.274 365.611 421.274ZM383.86 448.987C384.538 455.769 384.668 457.058 376.832 458.533C372.955 459.266 368.879 459.239 364.995 458.553C360.104 457.689 358.727 456.784 359.268 453.718C359.563 452.038 360.782 449.686 361.481 447.999C363.166 443.891 364.228 439.502 364.659 435.086C365.091 429.97 365.79 431.211 361.31 429.078C357.823 427.398 359.351 426.678 356.994 430.731C354.562 434.914 351.987 438.288 348.904 441.998C347.26 443.987 346.363 445.057 344.883 445.098C343.328 445.139 342.458 444.104 341.006 441.868C338.636 438.199 336.876 434.613 335.286 430.512C333.3 425.403 333.978 424.408 339.136 422.845C343.136 421.624 346.698 420.102 350.404 418.113C352.165 417.166 352.144 417.064 352.014 416.604C351.206 413.724 351.062 411.426 351.493 408.43C351.61 407.62 351.63 407.49 348.363 406.393C344.678 405.158 341.123 404.363 337.287 403.862C332.293 403.156 332.553 400.241 333.629 396.675C334.93 392.334 340.177 377.343 344.363 376.829C345.664 376.671 346.616 377.329 347.911 378.742C351.35 382.487 354.405 386.738 356.946 391.148C359.131 394.94 358.631 394.392 360.858 393.013C365.187 390.723 364.481 393.644 364.002 386.738C363.707 382.363 362.796 378.056 361.2 373.976C359.035 368.428 357.522 364.835 364.666 363.374C368.502 362.585 372.489 362.565 376.345 363.23C384.168 364.581 384.004 365.678 383.038 372.227C382.134 378.358 381.099 383.419 378.839 389.276C376.277 395.599 376.147 394.254 378.414 396.977C380.339 399.281 379.38 399.631 381.353 397.505C383.593 395.098 385.723 392.821 387.73 390.195C389.224 388.24 390.628 386.197 391.936 384.098C394.772 379.551 397.868 374.394 401.787 381.622C403.506 384.798 405.246 387.959 406.472 391.367C409.02 398.465 408.787 398.582 403.102 401.339C398.067 403.78 393.614 405.824 388.217 407.511C385.319 408.416 383.1 407.593 383.195 410.014C383.319 413.23 384.463 411.961 388.422 413.038C393.834 414.512 398.266 416.391 403.28 418.764C409.219 421.576 409.376 421.651 407.013 428.921C406.445 430.669 405.78 432.404 405.02 434.112C404.266 435.806 403.417 437.472 402.478 439.104C400.382 442.753 399.142 443.919 397.06 442.712C396.06 442.136 395.361 440.935 394.265 439.063C393.888 438.412 393.443 437.664 392.929 436.821C391.628 434.702 390.23 432.692 388.744 430.807C386.607 428.091 384.333 425.835 381.928 423.4C379.99 421.432 380.819 421.665 379.175 423.921C377.229 427.24 377.154 424.683 380.003 431.773C382.305 437.609 383.237 442.76 383.86 448.987Z" fill="white"/>
<path fill-rule="evenodd" clip-rule="evenodd" d="M216.103 313.792C217.459 313.792 218.562 314.896 218.562 316.254C218.562 317.612 217.459 318.716 216.103 318.716C180.996 318.716 145.883 318.716 110.777 318.716C109.42 318.716 108.317 317.612 108.317 316.254C108.317 314.896 109.42 313.792 110.777 313.792C145.883 313.792 180.996 313.792 216.103 313.792ZM211.116 321.075C212.472 321.075 213.575 322.179 213.575 323.537C213.575 324.895 212.472 325.999 211.116 325.999C177.859 325.999 144.609 325.999 111.352 325.999C109.996 325.999 108.893 324.895 108.893 323.537C108.893 322.179 109.996 321.075 111.352 321.075C144.609 321.075 177.859 321.075 211.116 321.075Z" fill="#6B7193"/>
<path fill-rule="evenodd" clip-rule="evenodd" d="M-16.6685 470.842C-16.6685 462.791 -10.1472 456.263 -2.10527 456.263H307.914C315.956 456.263 322.477 462.791 322.477 470.842H-16.6685Z" fill="white"/>
<path fill-rule="evenodd" clip-rule="evenodd" d="M211.657 270.897C215.267 270.897 218.713 271.582 221.877 272.83C228.33 260.651 241.119 252.346 255.853 252.346C270.17 252.346 282.658 260.192 289.275 271.822C293.131 269.799 297.529 268.647 302.187 268.647C313.366 268.647 323.004 275.238 327.45 284.749C315.743 287.547 304.544 290.709 294.858 294.179L220.206 307.14L185.01 306.982C184.216 304.397 183.791 301.647 183.791 298.801C183.784 283.391 196.265 270.897 211.657 270.897Z" fill="white"/>
<path fill-rule="evenodd" clip-rule="evenodd" d="M234.605 221.781C238.276 221.781 241.263 224.764 241.263 228.447C241.263 232.129 238.283 235.113 234.605 235.113C230.933 235.113 227.946 232.129 227.946 228.447C227.953 224.764 230.933 221.781 234.605 221.781Z" fill="white"/>
<path fill-rule="evenodd" clip-rule="evenodd" d="M189.723 218.805C192.134 211.81 197.669 206.276 204.656 203.855C197.669 201.441 192.141 195.9 189.723 188.905C187.312 195.9 181.777 201.441 174.79 203.855C181.784 206.276 187.312 211.81 189.723 218.805Z" fill="white"/>
<path fill-rule="evenodd" clip-rule="evenodd" d="M93.7059 272.248C95.3773 267.406 99.2065 263.566 104.049 261.892C99.2133 260.219 95.3773 256.386 93.7059 251.537C92.0345 256.379 88.2053 260.219 83.3623 261.892C88.2053 263.573 92.0345 267.406 93.7059 272.248Z" fill="white"/>
<path fill-rule="evenodd" clip-rule="evenodd" d="M149.178 268.428C164.563 268.428 177.05 280.929 177.05 296.332C177.05 311.735 164.563 324.236 149.178 324.236C133.792 324.236 121.305 311.735 121.305 296.332C121.305 280.929 133.792 268.428 149.178 268.428Z" fill="white"/>
<path fill-rule="evenodd" clip-rule="evenodd" d="M196.614 236.669C220.069 236.669 239.112 255.734 239.112 279.215C239.112 302.696 220.069 321.761 196.614 321.761C173.153 321.761 154.117 302.696 154.117 279.215C154.117 255.734 173.153 236.669 196.614 236.669Z" fill="white"/>
<path fill-rule="evenodd" clip-rule="evenodd" d="M123.065 409.835C156.713 409.835 184.003 437.157 184.003 470.842H62.1274C62.1274 437.157 89.4112 409.835 123.065 409.835Z" fill="white"/>
<path fill-rule="evenodd" clip-rule="evenodd" d="M65.7581 428.352C81.1501 428.352 93.6309 440.846 93.6309 456.256C93.6309 461.598 92.1307 466.591 89.5277 470.836H41.9884C39.3854 466.591 37.8853 461.598 37.8853 456.256C37.8853 440.853 50.3729 428.352 65.7581 428.352Z" fill="white"/>
<path fill-rule="evenodd" clip-rule="evenodd" d="M246.839 442.931C262.231 442.931 274.711 455.426 274.711 470.836H218.959C218.959 455.433 231.447 442.931 246.839 442.931Z" fill="white"/>
<path fill-rule="evenodd" clip-rule="evenodd" d="M-37.3626 478.228C-42.2125 478.228 -42.2125 470.842 -37.3626 470.842C277.726 470.842 544.274 470.842 859.363 470.842C864.212 470.842 864.212 478.228 859.363 478.228C544.274 478.228 277.726 478.228 -37.3626 478.228ZM25.6372 493C20.7874 493 20.7874 485.614 25.6372 485.614H58.4763C63.5316 485.614 63.196 493 58.4763 493H25.6372ZM78.7798 485.614H792.869C797.719 485.614 797.719 493 792.869 493H78.7798C74.0122 493 73.7793 485.614 78.7798 485.614Z" fill="white"/>
</g>
<defs>
<clipPath id="clip0_6_600">
<rect width="904" height="493" fill="white" transform="translate(-41)"/>
</clipPath>
</defs>
</svg>
