<svg width="18" height="16" viewBox="0 0 18 16" fill="none" xmlns="http://www.w3.org/2000/svg">
<path d="M13.9828 9.95302C13.7648 10.1644 13.6645 10.47 13.7142 10.7698L14.4628 14.9127C14.526 15.2638 14.3778 15.6192 14.0839 15.8221C13.7959 16.0326 13.4128 16.0579 13.0987 15.8895L9.36926 13.9443C9.23958 13.8753 9.09559 13.8382 8.94823 13.834H8.72004C8.64088 13.8458 8.56342 13.8711 8.49268 13.9098L4.76241 15.8642C4.578 15.9568 4.36917 15.9897 4.16455 15.9568C3.66606 15.8625 3.33345 15.3876 3.41513 14.8866L4.16455 10.7437C4.21423 10.4414 4.11403 10.1341 3.89594 9.91934L0.855299 6.97217C0.601 6.72545 0.512585 6.35494 0.628788 6.02065C0.741622 5.6872 1.0296 5.44385 1.37737 5.38911L5.56235 4.782C5.88065 4.74916 6.16021 4.55549 6.30336 4.26919L8.14744 0.488388C8.19123 0.404184 8.24765 0.326715 8.31585 0.261035L8.39164 0.202092C8.43121 0.158305 8.47668 0.122097 8.52721 0.0926254L8.61899 0.0589434L8.76214 0H9.11664C9.43325 0.0328399 9.71197 0.222301 9.85765 0.505229L11.7262 4.26919C11.8609 4.54454 12.1228 4.73568 12.4251 4.782L16.61 5.38911C16.9637 5.43964 17.2593 5.68383 17.3763 6.02065C17.4866 6.35831 17.3915 6.72881 17.1321 6.97217L13.9828 9.95302Z" fill="#F6B551"/>
</svg>
