<svg width="29" height="10" viewBox="0 0 29 10" fill="none" xmlns="http://www.w3.org/2000/svg">
<path d="M10.6338 9.16584L12.1068 0.880127H14.4084L12.9814 9.16584H10.6338Z" fill="#3C58BF"/>
<path d="M10.6338 9.16584L12.5211 0.880127H14.4084L12.9814 9.16584H10.6338Z" fill="#293688"/>
<path d="M21.3124 0.972257C20.8521 0.78813 20.1156 0.604004 19.1949 0.604004C16.8933 0.604004 15.2362 1.7548 15.2362 3.41194C15.2362 4.65479 16.387 5.29924 17.3076 5.71352C18.2283 6.12781 18.5044 6.404 18.5044 6.77225C18.5044 7.32463 17.7679 7.60082 17.1235 7.60082C16.2029 7.60082 15.6965 7.46273 14.914 7.14051L14.5918 7.00241L14.2695 8.88971C14.8219 9.11987 15.8346 9.35003 16.8933 9.35003C19.333 9.35003 20.9441 8.19924 20.9441 6.45003C20.9441 5.48337 20.3457 4.74686 18.9648 4.14845C18.1362 3.73416 17.6298 3.504 17.6298 3.08972C17.6298 2.72146 18.0441 2.35321 18.9648 2.35321C19.7473 2.35321 20.2997 2.4913 20.714 2.67543L20.9441 2.76749L21.3124 0.972257Z" fill="#3C58BF"/>
<path d="M21.3124 0.972257C20.8521 0.78813 20.1156 0.604004 19.1949 0.604004C16.8933 0.604004 15.6505 1.7548 15.6505 3.41194C15.6505 4.65479 16.387 5.29924 17.3076 5.71352C18.2283 6.12781 18.5044 6.404 18.5044 6.77225C18.5044 7.32463 17.7679 7.60082 17.1235 7.60082C16.2029 7.60082 15.6965 7.46273 14.914 7.14051L14.5918 7.00241L14.2695 8.88971C14.8219 9.11987 15.8346 9.35003 16.8933 9.35003C19.333 9.35003 20.9441 8.19924 20.9441 6.45003C20.9441 5.48337 20.3457 4.74686 18.9648 4.14845C18.1362 3.73416 17.6298 3.504 17.6298 3.08972C17.6298 2.72146 18.0441 2.35321 18.9648 2.35321C19.7473 2.35321 20.2997 2.4913 20.714 2.67543L20.9441 2.76749L21.3124 0.972257Z" fill="#293688"/>
<path d="M25.2713 0.880127C24.7189 0.880127 24.3046 0.926159 24.0744 1.47854L20.6221 9.16584H23.1078L23.5681 7.78488H26.5141L26.7903 9.16584H28.9998L27.0665 0.880127H25.2713ZM24.2125 6.40393C24.3506 5.98965 25.1332 3.96425 25.1332 3.96425C25.1332 3.96425 25.3173 3.4579 25.4554 3.13568L25.5935 3.91822C25.5935 3.91822 26.0538 5.98965 26.1459 6.44997H24.2125V6.40393Z" fill="#3C58BF"/>
<path d="M25.8237 0.880127C25.2713 0.880127 24.857 0.926159 24.6268 1.47854L20.6221 9.16584H23.1078L23.5681 7.78488H26.5141L26.7903 9.16584H28.9998L27.0665 0.880127H25.8237ZM24.2125 6.40393C24.3967 5.94362 25.1332 3.96425 25.1332 3.96425C25.1332 3.96425 25.3173 3.4579 25.4554 3.13568L25.5935 3.91822C25.5935 3.91822 26.0538 5.98965 26.1459 6.44997H24.2125V6.40393Z" fill="#293688"/>
<path d="M6.39867 6.68023L6.16851 5.48341C5.75422 4.10246 4.4193 2.58341 2.94629 1.8469L5.01772 9.21198H7.50343L11.232 0.92627H8.74628L6.39867 6.68023Z" fill="#3C58BF"/>
<path d="M6.39867 6.68023L6.16851 5.48341C5.75422 4.10246 4.4193 2.58341 2.94629 1.8469L5.01772 9.21198H7.50343L11.232 0.92627H9.2066L6.39867 6.68023Z" fill="#293688"/>
<path d="M0 0.880127L0.414285 0.972191C3.36031 1.66267 5.38571 3.41187 6.16825 5.4833L5.33968 1.5706C5.20158 1.01822 4.7873 0.880127 4.28095 0.880127H0Z" fill="#FFBC00"/>
<path d="M0 0.880127C2.94603 1.5706 5.38571 3.36584 6.16825 5.43727L5.38571 2.16902C5.24761 1.61663 4.7873 1.29441 4.28095 1.29441L0 0.880127Z" fill="#F7981D"/>
<path d="M0 0.880127C2.94603 1.5706 5.38571 3.36584 6.16825 5.43727L5.61587 3.64203C5.47777 3.08965 5.29365 2.53727 4.6492 2.30711L0 0.880127Z" fill="#ED7C00"/>
<path d="M8.70012 6.40395L7.13504 4.83887L6.39853 6.58808L6.21441 5.43729C5.80012 4.05634 4.4652 2.53729 2.99219 1.80078L5.06361 9.16585H7.54933L8.70012 6.40395Z" fill="#051244"/>
<path d="M12.9814 9.16578L11.002 7.14038L10.6338 9.16578H12.9814Z" fill="#051244"/>
<path d="M18.2743 6.31177C18.4584 6.49589 18.5505 6.63399 18.5044 6.81812C18.5044 7.3705 17.7679 7.64669 17.1235 7.64669C16.2029 7.64669 15.6965 7.50859 14.914 7.18637L14.5918 7.04828L14.2695 8.93558C14.8219 9.16573 15.8346 9.39589 16.8933 9.39589C18.3664 9.39589 19.5632 8.98161 20.2537 8.2451L18.2743 6.31177Z" fill="#051244"/>
<path d="M20.9443 9.1659H23.1078L23.5681 7.78494H26.5142L26.7904 9.1659H28.9999L28.2173 5.80558L25.4554 3.13574L25.5935 3.87225C25.5935 3.87225 26.0539 5.94368 26.1459 6.40399H24.2126C24.3967 5.94368 25.1332 3.96431 25.1332 3.96431C25.1332 3.96431 25.3173 3.45796 25.4554 3.13574" fill="#051244"/>
</svg>
