<svg width="40" height="40" viewBox="0 0 40 40" fill="none" xmlns="http://www.w3.org/2000/svg">
<path d="M32.6875 26.7969V29.0625C32.6875 30.3122 31.6707 31.3281 30.4219 31.3281H10.9375C8.93831 31.3281 7.3125 29.7023 7.3125 27.7031C7.3125 27.7031 7.3125 12.3105 7.3125 12.2969C7.3125 10.2977 8.93831 8.67188 10.9375 8.67188H27.7031C28.4544 8.67188 29.0625 9.28087 29.0625 10.0312C29.0625 10.7816 28.4544 11.3906 27.7031 11.3906H10.9375C10.4382 11.3906 10.0312 11.7966 10.0312 12.2969C10.0312 12.7971 10.4382 13.2031 10.9375 13.2031H30.4219C31.6707 13.2031 32.6875 14.219 32.6875 15.4688V17.7344H28.1562C25.6577 17.7344 23.625 19.7671 23.625 22.2656C23.625 24.7642 25.6577 26.7969 28.1562 26.7969H32.6875Z" fill="#B0B0B0"/>
<path d="M35 19V26.5H28.75C26.6788 26.5 25 24.8212 25 22.75C25 20.6788 26.6788 19 28.75 19H35Z" fill="#B0B0B0"/>
</svg>
