<svg width="40" height="40" viewBox="0 0 40 40" fill="none" xmlns="http://www.w3.org/2000/svg">
<path d="M29.7346 23.4725C29.3185 19.9985 27.4493 17.4512 25.1359 17.4512H14.864C12.5506 17.4512 10.68 19.9999 10.264 23.4725C8.80256 24.3293 8.0332 25.9612 8.0332 27.8581C8.0332 29.0456 8.34649 30.1239 8.92792 30.9863V34.7951H13.8066V32.8886H26.1933V34.7951H31.0706V30.9863C31.6521 30.1267 31.9667 29.0484 31.9667 27.8581C31.9667 25.9598 31.1947 24.3293 29.7346 23.4725ZM12.168 29.4911C11.2881 29.4911 10.5735 28.7628 10.5735 27.8581C10.5735 26.9534 11.2881 26.2237 12.168 26.2237C13.0493 26.2237 13.764 26.9534 13.764 27.8581C13.764 28.7628 13.0493 29.4911 12.168 29.4911ZM12.7385 22.8262C12.4212 22.8262 12.1278 22.8644 11.8425 22.9095C12.3026 20.63 13.4985 18.9518 14.8652 18.9518H25.1386C26.5025 18.9518 27.6985 20.63 28.1599 22.9095C28.0066 22.8864 27.8453 22.8782 27.6839 22.8672C27.6839 22.8534 27.6893 22.8399 27.6893 22.8276C27.6893 21.3858 26.5452 20.2131 25.1372 20.2131C23.7319 20.2131 22.5878 21.3858 22.5878 22.8276H12.7385V22.8262ZM24.6333 29.3106H15.3693C15.0987 29.3106 14.8812 29.0864 14.8812 28.8104C14.8812 28.5358 15.1 28.3116 15.3693 28.3116H24.6333C24.9026 28.3116 25.12 28.5358 25.12 28.8104C25.12 29.0866 24.9012 29.3106 24.6333 29.3106ZM24.6333 27.8799H15.3693C15.0987 27.8799 14.8812 27.6556 14.8812 27.3796C14.8812 27.1036 15.1 26.8794 15.3693 26.8794H24.6333C24.9026 26.8794 25.12 27.1036 25.12 27.3796C25.12 27.6556 24.9012 27.8799 24.6333 27.8799ZM23.5627 22.8262C23.5627 21.938 24.2693 21.2122 25.1388 21.2122C26.0053 21.2122 26.7135 21.9364 26.7135 22.8262H23.5627ZM27.8319 29.4911C26.9506 29.4911 26.2359 28.7628 26.2359 27.8581C26.2359 26.9534 26.9506 26.2237 27.8319 26.2237C28.7118 26.2237 29.4265 26.9534 29.4265 27.8581C29.424 28.7628 28.7121 29.4911 27.8319 29.4911Z" fill="#B0B0B0"/>
<path d="M31.9665 5H8.0332V6.99948H31.9665V5Z" fill="#B0B0B0"/>
<path d="M18.6836 12.7404C18.6836 13.4852 19.2715 14.0906 19.9995 14.0906C20.7262 14.0906 21.3141 13.4866 21.3141 12.7404C21.3141 11.9942 19.9995 9.62988 19.9995 9.62988C19.9995 9.62988 18.6836 11.9956 18.6836 12.7404Z" fill="#B0B0B0"/>
<path d="M14.7197 10.5115C14.7197 11.2563 15.3076 11.8603 16.037 11.8603C16.7637 11.8603 17.3543 11.2563 17.3543 10.5115C17.3543 9.7639 16.037 7.39819 16.037 7.39819C16.037 7.39819 14.7197 9.76253 14.7197 10.5115Z" fill="#B0B0B0"/>
<path d="M22.6455 10.5115C22.6455 11.2563 23.2334 11.8603 23.9628 11.8603C24.6895 11.8603 25.2787 11.2563 25.2787 10.5115C25.2787 9.7639 23.9628 7.39819 23.9628 7.39819C23.9628 7.39819 22.6455 9.76253 22.6455 10.5115Z" fill="#B0B0B0"/>
<path d="M40 18.7686V16.7664H37.3974V5.50146H2.60259V16.7664H0V18.7686H2.60259V19.0883H0V21.0864H2.60259V21.4048H0V23.4043H2.60259V23.7254H0V25.7246H2.60259V26.0432H0V28.0425H2.60259V28.3622H0V30.3617H2.60259V30.6787H0V32.6795H2.60259V33.0006H0V34.9999H6.1799V33.0006H3.57731V32.6795H6.1799V30.6787H3.57731V30.3617H6.1799V28.3622H3.57731V28.0425H6.1799V26.0432H3.57731V25.7246H6.1799V23.7254H3.57731V23.4043H6.1799V21.4048H3.57731V21.0864H6.1799V19.0883H3.57731V18.7686H6.1799V16.7664H3.57731V6.50166H36.4213V16.7664H33.8201V18.7686H36.4213V19.0883H33.8201V21.0864H36.4213V21.4048H33.8201V23.4043H36.4213V23.7254H33.8201V25.7246H36.4213V26.0432H33.8201V28.0425H36.4213V28.3622H33.8201V30.3617H36.4213V30.6787H33.8201V32.6795H36.4213V33.0006H33.8201V34.9999H40V33.0006H37.3974V32.6795H40V30.6787H37.3974V30.3617H40V28.3622H37.3974V28.0425H40V26.0432H37.3974V25.7246H40V23.7254H37.3974V23.4043H40V21.4048H37.3974V21.0864H40V19.0883H37.3974V18.7686H40Z" fill="#B0B0B0"/>
</svg>
